<mxfile host="app.diagrams.net" modified="2023-12-11T13:59:21.771Z" agent="Mozilla/5.0 (Windows NT 10.0; Win64; x64) AppleWebKit/537.36 (KHTML, like Gecko) Chrome/120.0.0.0 Safari/537.36 Edg/120.0.0.0" etag="S1aa0x2TSeyka3Ic9bMC" version="22.1.7" type="github">
  <diagram name="第 1 页" id="Jm_aGgAJMo1RXUAtdN9r">
    <mxGraphModel dx="956" dy="577" grid="1" gridSize="10" guides="1" tooltips="1" connect="1" arrows="1" fold="1" page="1" pageScale="1" pageWidth="827" pageHeight="1169" math="0" shadow="0">
      <root>
        <mxCell id="0" />
        <mxCell id="1" parent="0" />
        <UserObject label="" plantUmlData="{&#xa;  &quot;data&quot;: &quot;@startuml\n\n!theme plain\ntop to bottom direction\nskinparam linetype ortho\n\nclass BaseController {\n  + BaseController(): \n  # setSessionUser(HttpSession, Object): void\n  # getSessionUser(HttpSession): Object\n  + exception(Exception): R\n}\nclass UsersController {\n  + UsersController(): \n  + getPageInfos(Long, Long, Users): R\n  + delInfo(String): R\n  + updInfo(Users): R\n  + index(): String\n  + getInfo(String): R\n  + addInfo(Users): R\n}\n\nUsersController  -[#000082,plain]-^  BaseController  \n@enduml\n&quot;,&#xa;  &quot;format&quot;: &quot;svg&quot;&#xa;}" id="WzdI1a4IJHju0GnlryfJ-1">
          <mxCell style="shape=image;noLabel=1;verticalAlign=top;aspect=fixed;imageAspect=0;image=data:image/svg+xml,PD94bWwgdmVyc2lvbj0iMS4wIiBlbmNvZGluZz0idXMtYXNjaWkiIHN0YW5kYWxvbmU9Im5vIj8+PHN2ZyB4bWxucz0iaHR0cDovL3d3dy53My5vcmcvMjAwMC9zdmciIHhtbG5zOnhsaW5rPSJodHRwOi8vd3d3LnczLm9yZy8xOTk5L3hsaW5rIiBjb250ZW50U3R5bGVUeXBlPSJ0ZXh0L2NzcyIgaGVpZ2h0PSIzMzFweCIgcHJlc2VydmVBc3BlY3RSYXRpbz0ibm9uZSIgc3R5bGU9IndpZHRoOjMzNHB4O2hlaWdodDozMzFweDtiYWNrZ3JvdW5kOiNGRkZGRkY7IiB2ZXJzaW9uPSIxLjEiIHZpZXdCb3g9IjAgMCAzMzQgMzMxIiB3aWR0aD0iMzM0cHgiIHpvb21BbmRQYW49Im1hZ25pZnkiPjxkZWZzLz48Zz48IS0tY2xhc3MgQmFzZUNvbnRyb2xsZXItLT48ZyBpZD0iZWxlbV9CYXNlQ29udHJvbGxlciI+PHJlY3QgY29kZUxpbmU9IjUiIGZpbGw9IiNGRkZGRkYiIGhlaWdodD0iMTAzLjkzNzUiIGlkPSJCYXNlQ29udHJvbGxlciIgcng9IjIuNSIgcnk9IjIuNSIgc3R5bGU9InN0cm9rZTojMDAwMDAwO3N0cm9rZS13aWR0aDoxLjA7IiB3aWR0aD0iMzEzIiB4PSIxNCIgeT0iMjIxIi8+PGVsbGlwc2UgY3g9IjExNy43NSIgY3k9IjIzNSIgZmlsbD0iI0ZGRkZGRiIgcng9IjkiIHJ5PSI5IiBzdHlsZT0ic3Ryb2tlOiMwMDAwMDA7c3Ryb2tlLXdpZHRoOjEuMDsiLz48cGF0aCBkPSJNMTE1LjM3NSwyMzkuMjUgTDExNS4zNzUsMjQxIEwxMjAuMzEyNSwyNDEgTDEyMC4zMTI1LDIzOS4yNSBMMTE1LjM3NSwyMzkuMjUgWiBNMTE2LjA2MjUsMjM5LjkzNzUgUTExNi4wNjI1LDIzOS45Mzc1IDExNi4wNjI1LDIzMC43NSBMMTE0LjMxMjUsMjMwLjc1IFExMTQuMzEyNSwyMzAuNzUgMTE0LjMxMjUsMjM5LjkzNzUgTDExNi4wNjI1LDIzOS45Mzc1IFogTTExOS42MjUsMjM5LjkzNzUgTDEyMS4zNzUsMjM5LjkzNzUgUTEyMS4zNzUsMjM5LjkzNzUgMTIxLjM3NSwyMzcuMTI1IEwxMTkuNjI1LDIzNy4xMjUgUTExOS42MjUsMjM3LjEyNSAxMTkuNjI1LDIzOS45Mzc1IFogTTExOS42MjUsMjMwLjc1IFExMTkuNjI1LDIzMC43NSAxMTkuNjI1LDIzMy41NjI1IEwxMjEuMzc1LDIzMy41NjI1IFExMjEuMzc1LDIzMy41NjI1IDEyMS4zNzUsMjMwLjc1IEwxMTkuNjI1LDIzMC43NSBaIE0xMTUuMzc1LDIzMS40Mzc1IEwxMjAuMzEyNSwyMzEuNDM3NSBMMTIwLjMxMjUsMjI5LjY4NzUgTDExNS4zNzUsMjI5LjY4NzUgTDExNS4zNzUsMjMxLjQzNzUgWiAiIGZpbGw9IiMwMDAwMDAiLz48dGV4dCBmaWxsPSIjMDAwMDAwIiBmb250LWZhbWlseT0iVmVyZGFuYSIgZm9udC1zaXplPSIxNCIgbGVuZ3RoQWRqdXN0PSJzcGFjaW5nIiB0ZXh0TGVuZ3RoPSI5OCIgeD0iMTM1LjI1IiB5PSIyNDAuNzQyMiI+QmFzZUNvbnRyb2xsZXI8L3RleHQ+PGxpbmUgc3R5bGU9InN0cm9rZTojMDAwMDAwO3N0cm9rZS13aWR0aDoxLjA7IiB4MT0iMTUiIHgyPSIzMjYiIHkxPSIyNDkiIHkyPSIyNDkiLz48bGluZSBzdHlsZT0ic3Ryb2tlOiMwMDAwMDA7c3Ryb2tlLXdpZHRoOjEuMDsiIHgxPSIxNSIgeDI9IjMyNiIgeTE9IjI1NyIgeTI9IjI1NyIvPjxlbGxpcHNlIGN4PSIyNSIgY3k9IjI2OS45OTIyIiBmaWxsPSIjRkZGRkZGIiByeD0iMyIgcnk9IjMiIHN0eWxlPSJzdHJva2U6IzAwMDAwMDtzdHJva2Utd2lkdGg6MS4wOyIvPjx0ZXh0IGZpbGw9IiMwMDAwMDAiIGZvbnQtZmFtaWx5PSJWZXJkYW5hIiBmb250LXNpemU9IjE0IiBsZW5ndGhBZGp1c3Q9InNwYWNpbmciIHRleHRMZW5ndGg9IjEyMSIgeD0iMzIiIHk9IjI3NC4yMzQ0Ij5CYXNlQ29udHJvbGxlcigpOjwvdGV4dD48cG9seWdvbiBmaWxsPSIjRkZGRkZGIiBwb2ludHM9IjI1LDI3OS45NzY2LDI5LDI4My45NzY2LDI1LDI4Ny45NzY2LDIxLDI4My45NzY2IiBzdHlsZT0ic3Ryb2tlOiMwMDAwMDA7c3Ryb2tlLXdpZHRoOjEuMDsiLz48dGV4dCBmaWxsPSIjMDAwMDAwIiBmb250LWZhbWlseT0iVmVyZGFuYSIgZm9udC1zaXplPSIxNCIgbGVuZ3RoQWRqdXN0PSJzcGFjaW5nIiB0ZXh0TGVuZ3RoPSIyODkiIHg9IjMyIiB5PSIyODkuMjE4OCI+c2V0U2Vzc2lvblVzZXIoSHR0cFNlc3Npb24sIE9iamVjdCk6IHZvaWQ8L3RleHQ+PHBvbHlnb24gZmlsbD0iI0ZGRkZGRiIgcG9pbnRzPSIyNSwyOTQuOTYwOSwyOSwyOTguOTYwOSwyNSwzMDIuOTYwOSwyMSwyOTguOTYwOSIgc3R5bGU9InN0cm9rZTojMDAwMDAwO3N0cm9rZS13aWR0aDoxLjA7Ii8+PHRleHQgZmlsbD0iIzAwMDAwMCIgZm9udC1mYW1pbHk9IlZlcmRhbmEiIGZvbnQtc2l6ZT0iMTQiIGxlbmd0aEFkanVzdD0ic3BhY2luZyIgdGV4dExlbmd0aD0iMjQ3IiB4PSIzMiIgeT0iMzA0LjIwMzEiPmdldFNlc3Npb25Vc2VyKEh0dHBTZXNzaW9uKTogT2JqZWN0PC90ZXh0PjxlbGxpcHNlIGN4PSIyNSIgY3k9IjMxNC45NDUzIiBmaWxsPSIjRkZGRkZGIiByeD0iMyIgcnk9IjMiIHN0eWxlPSJzdHJva2U6IzAwMDAwMDtzdHJva2Utd2lkdGg6MS4wOyIvPjx0ZXh0IGZpbGw9IiMwMDAwMDAiIGZvbnQtZmFtaWx5PSJWZXJkYW5hIiBmb250LXNpemU9IjE0IiBsZW5ndGhBZGp1c3Q9InNwYWNpbmciIHRleHRMZW5ndGg9IjE2MyIgeD0iMzIiIHk9IjMxOS4xODc1Ij5leGNlcHRpb24oRXhjZXB0aW9uKTogUjwvdGV4dD48L2c+PCEtLWNsYXNzIFVzZXJzQ29udHJvbGxlci0tPjxnIGlkPSJlbGVtX1VzZXJzQ29udHJvbGxlciI+PHJlY3QgY29kZUxpbmU9IjExIiBmaWxsPSIjRkZGRkZGIiBoZWlnaHQ9IjE0OC44OTA2IiBpZD0iVXNlcnNDb250cm9sbGVyIiByeD0iMi41IiByeT0iMi41IiBzdHlsZT0ic3Ryb2tlOiMwMDAwMDA7c3Ryb2tlLXdpZHRoOjEuMDsiIHdpZHRoPSIyNjQiIHg9IjM4LjUiIHk9IjEyIi8+PGVsbGlwc2UgY3g9IjExNC4yNSIgY3k9IjI2IiBmaWxsPSIjRkZGRkZGIiByeD0iOSIgcnk9IjkiIHN0eWxlPSJzdHJva2U6IzAwMDAwMDtzdHJva2Utd2lkdGg6MS4wOyIvPjxwYXRoIGQ9Ik0xMTEuODc1LDMwLjI1IEwxMTEuODc1LDMyIEwxMTYuODEyNSwzMiBMMTE2LjgxMjUsMzAuMjUgTDExMS44NzUsMzAuMjUgWiBNMTEyLjU2MjUsMzAuOTM3NSBRMTEyLjU2MjUsMzAuOTM3NSAxMTIuNTYyNSwyMS43NSBMMTEwLjgxMjUsMjEuNzUgUTExMC44MTI1LDIxLjc1IDExMC44MTI1LDMwLjkzNzUgTDExMi41NjI1LDMwLjkzNzUgWiBNMTE2LjEyNSwzMC45Mzc1IEwxMTcuODc1LDMwLjkzNzUgUTExNy44NzUsMzAuOTM3NSAxMTcuODc1LDI4LjEyNSBMMTE2LjEyNSwyOC4xMjUgUTExNi4xMjUsMjguMTI1IDExNi4xMjUsMzAuOTM3NSBaIE0xMTYuMTI1LDIxLjc1IFExMTYuMTI1LDIxLjc1IDExNi4xMjUsMjQuNTYyNSBMMTE3Ljg3NSwyNC41NjI1IFExMTcuODc1LDI0LjU2MjUgMTE3Ljg3NSwyMS43NSBMMTE2LjEyNSwyMS43NSBaIE0xMTEuODc1LDIyLjQzNzUgTDExNi44MTI1LDIyLjQzNzUgTDExNi44MTI1LDIwLjY4NzUgTDExMS44NzUsMjAuNjg3NSBMMTExLjg3NSwyMi40Mzc1IFogIiBmaWxsPSIjMDAwMDAwIi8+PHRleHQgZmlsbD0iIzAwMDAwMCIgZm9udC1mYW1pbHk9IlZlcmRhbmEiIGZvbnQtc2l6ZT0iMTQiIGxlbmd0aEFkanVzdD0ic3BhY2luZyIgdGV4dExlbmd0aD0iMTA1IiB4PSIxMzEuNzUiIHk9IjMxLjc0MjIiPlVzZXJzQ29udHJvbGxlcjwvdGV4dD48bGluZSBzdHlsZT0ic3Ryb2tlOiMwMDAwMDA7c3Ryb2tlLXdpZHRoOjEuMDsiIHgxPSIzOS41IiB4Mj0iMzAxLjUiIHkxPSI0MCIgeTI9IjQwIi8+PGxpbmUgc3R5bGU9InN0cm9rZTojMDAwMDAwO3N0cm9rZS13aWR0aDoxLjA7IiB4MT0iMzkuNSIgeDI9IjMwMS41IiB5MT0iNDgiIHkyPSI0OCIvPjxlbGxpcHNlIGN4PSI0OS41IiBjeT0iNjAuOTkyMiIgZmlsbD0iI0ZGRkZGRiIgcng9IjMiIHJ5PSIzIiBzdHlsZT0ic3Ryb2tlOiMwMDAwMDA7c3Ryb2tlLXdpZHRoOjEuMDsiLz48dGV4dCBmaWxsPSIjMDAwMDAwIiBmb250LWZhbWlseT0iVmVyZGFuYSIgZm9udC1zaXplPSIxNCIgbGVuZ3RoQWRqdXN0PSJzcGFjaW5nIiB0ZXh0TGVuZ3RoPSIxMjgiIHg9IjU2LjUiIHk9IjY1LjIzNDQiPlVzZXJzQ29udHJvbGxlcigpOjwvdGV4dD48ZWxsaXBzZSBjeD0iNDkuNSIgY3k9Ijc1Ljk3NjYiIGZpbGw9IiNGRkZGRkYiIHJ4PSIzIiByeT0iMyIgc3R5bGU9InN0cm9rZTojMDAwMDAwO3N0cm9rZS13aWR0aDoxLjA7Ii8+PHRleHQgZmlsbD0iIzAwMDAwMCIgZm9udC1mYW1pbHk9IlZlcmRhbmEiIGZvbnQtc2l6ZT0iMTQiIGxlbmd0aEFkanVzdD0ic3BhY2luZyIgdGV4dExlbmd0aD0iMjQwIiB4PSI1Ni41IiB5PSI4MC4yMTg4Ij5nZXRQYWdlSW5mb3MoTG9uZywgTG9uZywgVXNlcnMpOiBSPC90ZXh0PjxlbGxpcHNlIGN4PSI0OS41IiBjeT0iOTAuOTYwOSIgZmlsbD0iI0ZGRkZGRiIgcng9IjMiIHJ5PSIzIiBzdHlsZT0ic3Ryb2tlOiMwMDAwMDA7c3Ryb2tlLXdpZHRoOjEuMDsiLz48dGV4dCBmaWxsPSIjMDAwMDAwIiBmb250LWZhbWlseT0iVmVyZGFuYSIgZm9udC1zaXplPSIxNCIgbGVuZ3RoQWRqdXN0PSJzcGFjaW5nIiB0ZXh0TGVuZ3RoPSIxMjgiIHg9IjU2LjUiIHk9Ijk1LjIwMzEiPmRlbEluZm8oU3RyaW5nKTogUjwvdGV4dD48ZWxsaXBzZSBjeD0iNDkuNSIgY3k9IjEwNS45NDUzIiBmaWxsPSIjRkZGRkZGIiByeD0iMyIgcnk9IjMiIHN0eWxlPSJzdHJva2U6IzAwMDAwMDtzdHJva2Utd2lkdGg6MS4wOyIvPjx0ZXh0IGZpbGw9IiMwMDAwMDAiIGZvbnQtZmFtaWx5PSJWZXJkYW5hIiBmb250LXNpemU9IjE0IiBsZW5ndGhBZGp1c3Q9InNwYWNpbmciIHRleHRMZW5ndGg9IjEyMSIgeD0iNTYuNSIgeT0iMTEwLjE4NzUiPnVwZEluZm8oVXNlcnMpOiBSPC90ZXh0PjxlbGxpcHNlIGN4PSI0OS41IiBjeT0iMTIwLjkyOTciIGZpbGw9IiNGRkZGRkYiIHJ4PSIzIiByeT0iMyIgc3R5bGU9InN0cm9rZTojMDAwMDAwO3N0cm9rZS13aWR0aDoxLjA7Ii8+PHRleHQgZmlsbD0iIzAwMDAwMCIgZm9udC1mYW1pbHk9IlZlcmRhbmEiIGZvbnQtc2l6ZT0iMTQiIGxlbmd0aEFkanVzdD0ic3BhY2luZyIgdGV4dExlbmd0aD0iMTA3IiB4PSI1Ni41IiB5PSIxMjUuMTcxOSI+aW5kZXgoKTogU3RyaW5nPC90ZXh0PjxlbGxpcHNlIGN4PSI0OS41IiBjeT0iMTM1LjkxNDEiIGZpbGw9IiNGRkZGRkYiIHJ4PSIzIiByeT0iMyIgc3R5bGU9InN0cm9rZTojMDAwMDAwO3N0cm9rZS13aWR0aDoxLjA7Ii8+PHRleHQgZmlsbD0iIzAwMDAwMCIgZm9udC1mYW1pbHk9IlZlcmRhbmEiIGZvbnQtc2l6ZT0iMTQiIGxlbmd0aEFkanVzdD0ic3BhY2luZyIgdGV4dExlbmd0aD0iMTI4IiB4PSI1Ni41IiB5PSIxNDAuMTU2MyI+Z2V0SW5mbyhTdHJpbmcpOiBSPC90ZXh0PjxlbGxpcHNlIGN4PSI0OS41IiBjeT0iMTUwLjg5ODQiIGZpbGw9IiNGRkZGRkYiIHJ4PSIzIiByeT0iMyIgc3R5bGU9InN0cm9rZTojMDAwMDAwO3N0cm9rZS13aWR0aDoxLjA7Ii8+PHRleHQgZmlsbD0iIzAwMDAwMCIgZm9udC1mYW1pbHk9IlZlcmRhbmEiIGZvbnQtc2l6ZT0iMTQiIGxlbmd0aEFkanVzdD0ic3BhY2luZyIgdGV4dExlbmd0aD0iMTIxIiB4PSI1Ni41IiB5PSIxNTUuMTQwNiI+YWRkSW5mbyhVc2Vycyk6IFI8L3RleHQ+PC9nPjwhLS1saW5rIFVzZXJzQ29udHJvbGxlciB0byBCYXNlQ29udHJvbGxlci0tPjxnIGlkPSJsaW5rX1VzZXJzQ29udHJvbGxlcl9CYXNlQ29udHJvbGxlciI+PHBhdGggY29kZUxpbmU9IjIxIiBkPSJNMTcwLjUsMTYxLjAxIEMxNzAuNSwxNjEuMDEgMTcwLjUsMjAwLjk3IDE3MC41LDIwMC45NyAiIGZpbGw9Im5vbmUiIGlkPSJVc2Vyc0NvbnRyb2xsZXItdG8tQmFzZUNvbnRyb2xsZXIiIHN0eWxlPSJzdHJva2U6IzAwMDA4MjtzdHJva2Utd2lkdGg6MS4wOyIvPjxwb2x5Z29uIGZpbGw9Im5vbmUiIHBvaW50cz0iMTc3LjUsMjAwLjk3LDE3MC41LDIyMC45NywxNjMuNSwyMDAuOTcsMTc3LjUsMjAwLjk3IiBzdHlsZT0ic3Ryb2tlOiMwMDAwODI7c3Ryb2tlLXdpZHRoOjEuMDsiLz48L2c+PCEtLVNSQz1bVFA1MUltQ240OE5sLUhLWmxRbnEyLTk5RjJnMkdhNm5VMUE1VDNEa094RVBhMWNiOGx0bDlqY2pPREdTR2xCdXlqdkJTWUdSNzEyMnF6T2hlRzEyaTJPSDZpM09ZOXJPeWVndHJXU1R6RzNFVWZJRlc0MUhEZ0hLdnBHcE42WjZJXzhJb0pjQ3lBYTB2Zk5PNzl6M2FjVjBBMmphSmhPRmRFSGhhSjNqTXhYVGx3UjRIQndKRE9Oa193S0pEVThiMzdTVFhqb3JrSmdpNGQybHpiRjNWOWZfTFFwS2dVQ3lmenhmN2NfeTJ0NnA5RC10Q0N4YkczN0VjNDZOYU1PYnFWaC1NdHVCZmlXX09VaUR4ZEIySTF6b19aQkdmWlJPQXJOVjAxUUZpdkNxcGF4UnlkYkZZc1VldGxtQl0tLT48L2c+PC9zdmc+;" vertex="1" parent="1">
            <mxGeometry x="30" y="110" width="334" height="331" as="geometry" />
          </mxCell>
        </UserObject>
        <UserObject label="" plantUmlData="{&#xa;  &quot;data&quot;: &quot;@startuml\n\n!theme plain\ntop to bottom direction\nskinparam linetype ortho\n\nclass Users {\n  + Users(): \n  - id: String\n  - passWord: String\n  - gender: String\n  - address: String\n  - status: Integer\n  - createTime: String\n  - name: String\n  - type: Integer\n  - userName: String\n  - phone: String\n  - age: Integer\n  + toString(): String\n   name: String\n   passWord: String\n   gender: String\n   age: Integer\n   phone: String\n   userName: String\n   createTime: String\n   status: Integer\n   address: String\n   id: String\n   type: Integer\n}\n\n@enduml\n&quot;,&#xa;  &quot;format&quot;: &quot;svg&quot;&#xa;}" id="WzdI1a4IJHju0GnlryfJ-2">
          <mxCell style="shape=image;noLabel=1;verticalAlign=top;aspect=fixed;imageAspect=0;image=data:image/svg+xml,PD94bWwgdmVyc2lvbj0iMS4wIiBlbmNvZGluZz0idXMtYXNjaWkiIHN0YW5kYWxvbmU9Im5vIj8+PHN2ZyB4bWxucz0iaHR0cDovL3d3dy53My5vcmcvMjAwMC9zdmciIHhtbG5zOnhsaW5rPSJodHRwOi8vd3d3LnczLm9yZy8xOTk5L3hsaW5rIiBjb250ZW50U3R5bGVUeXBlPSJ0ZXh0L2NzcyIgaGVpZ2h0PSI0MjlweCIgcHJlc2VydmVBc3BlY3RSYXRpbz0ibm9uZSIgc3R5bGU9IndpZHRoOjE3OHB4O2hlaWdodDo0MjlweDtiYWNrZ3JvdW5kOiNGRkZGRkY7IiB2ZXJzaW9uPSIxLjEiIHZpZXdCb3g9IjAgMCAxNzggNDI5IiB3aWR0aD0iMTc4cHgiIHpvb21BbmRQYW49Im1hZ25pZnkiPjxkZWZzLz48Zz48IS0tY2xhc3MgVXNlcnMtLT48ZyBpZD0iZWxlbV9Vc2VycyI+PHJlY3QgY29kZUxpbmU9IjUiIGZpbGw9IiNGRkZGRkYiIGhlaWdodD0iNDAzLjYyNSIgaWQ9IlVzZXJzIiByeD0iMi41IiByeT0iMi41IiBzdHlsZT0ic3Ryb2tlOiMwMDAwMDA7c3Ryb2tlLXdpZHRoOjEuMDsiIHdpZHRoPSIxNTIiIHg9IjEyIiB5PSIxMiIvPjxlbGxpcHNlIGN4PSI2Ni43NSIgY3k9IjI2IiBmaWxsPSIjRkZGRkZGIiByeD0iOSIgcnk9IjkiIHN0eWxlPSJzdHJva2U6IzAwMDAwMDtzdHJva2Utd2lkdGg6MS4wOyIvPjxwYXRoIGQ9Ik02NC4zNzUsMzAuMjUgTDY0LjM3NSwzMiBMNjkuMzEyNSwzMiBMNjkuMzEyNSwzMC4yNSBMNjQuMzc1LDMwLjI1IFogTTY1LjA2MjUsMzAuOTM3NSBRNjUuMDYyNSwzMC45Mzc1IDY1LjA2MjUsMjEuNzUgTDYzLjMxMjUsMjEuNzUgUTYzLjMxMjUsMjEuNzUgNjMuMzEyNSwzMC45Mzc1IEw2NS4wNjI1LDMwLjkzNzUgWiBNNjguNjI1LDMwLjkzNzUgTDcwLjM3NSwzMC45Mzc1IFE3MC4zNzUsMzAuOTM3NSA3MC4zNzUsMjguMTI1IEw2OC42MjUsMjguMTI1IFE2OC42MjUsMjguMTI1IDY4LjYyNSwzMC45Mzc1IFogTTY4LjYyNSwyMS43NSBRNjguNjI1LDIxLjc1IDY4LjYyNSwyNC41NjI1IEw3MC4zNzUsMjQuNTYyNSBRNzAuMzc1LDI0LjU2MjUgNzAuMzc1LDIxLjc1IEw2OC42MjUsMjEuNzUgWiBNNjQuMzc1LDIyLjQzNzUgTDY5LjMxMjUsMjIuNDM3NSBMNjkuMzEyNSwyMC42ODc1IEw2NC4zNzUsMjAuNjg3NSBMNjQuMzc1LDIyLjQzNzUgWiAiIGZpbGw9IiMwMDAwMDAiLz48dGV4dCBmaWxsPSIjMDAwMDAwIiBmb250LWZhbWlseT0iVmVyZGFuYSIgZm9udC1zaXplPSIxNCIgbGVuZ3RoQWRqdXN0PSJzcGFjaW5nIiB0ZXh0TGVuZ3RoPSIzNSIgeD0iODQuMjUiIHk9IjMxLjc0MjIiPlVzZXJzPC90ZXh0PjxsaW5lIHN0eWxlPSJzdHJva2U6IzAwMDAwMDtzdHJva2Utd2lkdGg6MS4wOyIgeDE9IjEzIiB4Mj0iMTYzIiB5MT0iNDAiIHkyPSI0MCIvPjxyZWN0IGZpbGw9Im5vbmUiIGhlaWdodD0iNiIgc3R5bGU9InN0cm9rZTojMDAwMDAwO3N0cm9rZS13aWR0aDoxLjA7IiB3aWR0aD0iNiIgeD0iMjAiIHk9IjQ5Ljk5MjIiLz48dGV4dCBmaWxsPSIjMDAwMDAwIiBmb250LWZhbWlseT0iVmVyZGFuYSIgZm9udC1zaXplPSIxNCIgbGVuZ3RoQWRqdXN0PSJzcGFjaW5nIiB0ZXh0TGVuZ3RoPSI3MCIgeD0iMzAiIHk9IjU3LjIzNDQiPmlkOiBTdHJpbmc8L3RleHQ+PHJlY3QgZmlsbD0ibm9uZSIgaGVpZ2h0PSI2IiBzdHlsZT0ic3Ryb2tlOiMwMDAwMDA7c3Ryb2tlLXdpZHRoOjEuMDsiIHdpZHRoPSI2IiB4PSIyMCIgeT0iNjQuOTc2NiIvPjx0ZXh0IGZpbGw9IiMwMDAwMDAiIGZvbnQtZmFtaWx5PSJWZXJkYW5hIiBmb250LXNpemU9IjE0IiBsZW5ndGhBZGp1c3Q9InNwYWNpbmciIHRleHRMZW5ndGg9IjExMiIgeD0iMzAiIHk9IjcyLjIxODgiPnBhc3NXb3JkOiBTdHJpbmc8L3RleHQ+PHJlY3QgZmlsbD0ibm9uZSIgaGVpZ2h0PSI2IiBzdHlsZT0ic3Ryb2tlOiMwMDAwMDA7c3Ryb2tlLXdpZHRoOjEuMDsiIHdpZHRoPSI2IiB4PSIyMCIgeT0iNzkuOTYwOSIvPjx0ZXh0IGZpbGw9IiMwMDAwMDAiIGZvbnQtZmFtaWx5PSJWZXJkYW5hIiBmb250LXNpemU9IjE0IiBsZW5ndGhBZGp1c3Q9InNwYWNpbmciIHRleHRMZW5ndGg9Ijk4IiB4PSIzMCIgeT0iODcuMjAzMSI+Z2VuZGVyOiBTdHJpbmc8L3RleHQ+PHJlY3QgZmlsbD0ibm9uZSIgaGVpZ2h0PSI2IiBzdHlsZT0ic3Ryb2tlOiMwMDAwMDA7c3Ryb2tlLXdpZHRoOjEuMDsiIHdpZHRoPSI2IiB4PSIyMCIgeT0iOTQuOTQ1MyIvPjx0ZXh0IGZpbGw9IiMwMDAwMDAiIGZvbnQtZmFtaWx5PSJWZXJkYW5hIiBmb250LXNpemU9IjE0IiBsZW5ndGhBZGp1c3Q9InNwYWNpbmciIHRleHRMZW5ndGg9IjEwNSIgeD0iMzAiIHk9IjEwMi4xODc1Ij5hZGRyZXNzOiBTdHJpbmc8L3RleHQ+PHJlY3QgZmlsbD0ibm9uZSIgaGVpZ2h0PSI2IiBzdHlsZT0ic3Ryb2tlOiMwMDAwMDA7c3Ryb2tlLXdpZHRoOjEuMDsiIHdpZHRoPSI2IiB4PSIyMCIgeT0iMTA5LjkyOTciLz48dGV4dCBmaWxsPSIjMDAwMDAwIiBmb250LWZhbWlseT0iVmVyZGFuYSIgZm9udC1zaXplPSIxNCIgbGVuZ3RoQWRqdXN0PSJzcGFjaW5nIiB0ZXh0TGVuZ3RoPSIxMDUiIHg9IjMwIiB5PSIxMTcuMTcxOSI+c3RhdHVzOiBJbnRlZ2VyPC90ZXh0PjxyZWN0IGZpbGw9Im5vbmUiIGhlaWdodD0iNiIgc3R5bGU9InN0cm9rZTojMDAwMDAwO3N0cm9rZS13aWR0aDoxLjA7IiB3aWR0aD0iNiIgeD0iMjAiIHk9IjEyNC45MTQxIi8+PHRleHQgZmlsbD0iIzAwMDAwMCIgZm9udC1mYW1pbHk9IlZlcmRhbmEiIGZvbnQtc2l6ZT0iMTQiIGxlbmd0aEFkanVzdD0ic3BhY2luZyIgdGV4dExlbmd0aD0iMTI3IiB4PSIzMCIgeT0iMTMyLjE1NjMiPmNyZWF0ZVRpbWU6IFN0cmluZzwvdGV4dD48cmVjdCBmaWxsPSJub25lIiBoZWlnaHQ9IjYiIHN0eWxlPSJzdHJva2U6IzAwMDAwMDtzdHJva2Utd2lkdGg6MS4wOyIgd2lkdGg9IjYiIHg9IjIwIiB5PSIxMzkuODk4NCIvPjx0ZXh0IGZpbGw9IiMwMDAwMDAiIGZvbnQtZmFtaWx5PSJWZXJkYW5hIiBmb250LXNpemU9IjE0IiBsZW5ndGhBZGp1c3Q9InNwYWNpbmciIHRleHRMZW5ndGg9Ijg1IiB4PSIzMCIgeT0iMTQ3LjE0MDYiPm5hbWU6IFN0cmluZzwvdGV4dD48cmVjdCBmaWxsPSJub25lIiBoZWlnaHQ9IjYiIHN0eWxlPSJzdHJva2U6IzAwMDAwMDtzdHJva2Utd2lkdGg6MS4wOyIgd2lkdGg9IjYiIHg9IjIwIiB5PSIxNTQuODgyOCIvPjx0ZXh0IGZpbGw9IiMwMDAwMDAiIGZvbnQtZmFtaWx5PSJWZXJkYW5hIiBmb250LXNpemU9IjE0IiBsZW5ndGhBZGp1c3Q9InNwYWNpbmciIHRleHRMZW5ndGg9IjkxIiB4PSIzMCIgeT0iMTYyLjEyNSI+dHlwZTogSW50ZWdlcjwvdGV4dD48cmVjdCBmaWxsPSJub25lIiBoZWlnaHQ9IjYiIHN0eWxlPSJzdHJva2U6IzAwMDAwMDtzdHJva2Utd2lkdGg6MS4wOyIgd2lkdGg9IjYiIHg9IjIwIiB5PSIxNjkuODY3MiIvPjx0ZXh0IGZpbGw9IiMwMDAwMDAiIGZvbnQtZmFtaWx5PSJWZXJkYW5hIiBmb250LXNpemU9IjE0IiBsZW5ndGhBZGp1c3Q9InNwYWNpbmciIHRleHRMZW5ndGg9IjExMyIgeD0iMzAiIHk9IjE3Ny4xMDk0Ij51c2VyTmFtZTogU3RyaW5nPC90ZXh0PjxyZWN0IGZpbGw9Im5vbmUiIGhlaWdodD0iNiIgc3R5bGU9InN0cm9rZTojMDAwMDAwO3N0cm9rZS13aWR0aDoxLjA7IiB3aWR0aD0iNiIgeD0iMjAiIHk9IjE4NC44NTE2Ii8+PHRleHQgZmlsbD0iIzAwMDAwMCIgZm9udC1mYW1pbHk9IlZlcmRhbmEiIGZvbnQtc2l6ZT0iMTQiIGxlbmd0aEFkanVzdD0ic3BhY2luZyIgdGV4dExlbmd0aD0iOTEiIHg9IjMwIiB5PSIxOTIuMDkzOCI+cGhvbmU6IFN0cmluZzwvdGV4dD48cmVjdCBmaWxsPSJub25lIiBoZWlnaHQ9IjYiIHN0eWxlPSJzdHJva2U6IzAwMDAwMDtzdHJva2Utd2lkdGg6MS4wOyIgd2lkdGg9IjYiIHg9IjIwIiB5PSIxOTkuODM1OSIvPjx0ZXh0IGZpbGw9IiMwMDAwMDAiIGZvbnQtZmFtaWx5PSJWZXJkYW5hIiBmb250LXNpemU9IjE0IiBsZW5ndGhBZGp1c3Q9InNwYWNpbmciIHRleHRMZW5ndGg9Ijg0IiB4PSIzMCIgeT0iMjA3LjA3ODEiPmFnZTogSW50ZWdlcjwvdGV4dD48dGV4dCBmaWxsPSIjMDAwMDAwIiBmb250LWZhbWlseT0iVmVyZGFuYSIgZm9udC1zaXplPSIxNCIgbGVuZ3RoQWRqdXN0PSJzcGFjaW5nIiB0ZXh0TGVuZ3RoPSI4NSIgeD0iMzAiIHk9IjIyMi4wNjI1Ij5uYW1lOiBTdHJpbmc8L3RleHQ+PHRleHQgZmlsbD0iIzAwMDAwMCIgZm9udC1mYW1pbHk9IlZlcmRhbmEiIGZvbnQtc2l6ZT0iMTQiIGxlbmd0aEFkanVzdD0ic3BhY2luZyIgdGV4dExlbmd0aD0iMTEyIiB4PSIzMCIgeT0iMjM3LjA0NjkiPnBhc3NXb3JkOiBTdHJpbmc8L3RleHQ+PHRleHQgZmlsbD0iIzAwMDAwMCIgZm9udC1mYW1pbHk9IlZlcmRhbmEiIGZvbnQtc2l6ZT0iMTQiIGxlbmd0aEFkanVzdD0ic3BhY2luZyIgdGV4dExlbmd0aD0iOTgiIHg9IjMwIiB5PSIyNTIuMDMxMyI+Z2VuZGVyOiBTdHJpbmc8L3RleHQ+PHRleHQgZmlsbD0iIzAwMDAwMCIgZm9udC1mYW1pbHk9IlZlcmRhbmEiIGZvbnQtc2l6ZT0iMTQiIGxlbmd0aEFkanVzdD0ic3BhY2luZyIgdGV4dExlbmd0aD0iODQiIHg9IjMwIiB5PSIyNjcuMDE1NiI+YWdlOiBJbnRlZ2VyPC90ZXh0Pjx0ZXh0IGZpbGw9IiMwMDAwMDAiIGZvbnQtZmFtaWx5PSJWZXJkYW5hIiBmb250LXNpemU9IjE0IiBsZW5ndGhBZGp1c3Q9InNwYWNpbmciIHRleHRMZW5ndGg9IjkxIiB4PSIzMCIgeT0iMjgyIj5waG9uZTogU3RyaW5nPC90ZXh0Pjx0ZXh0IGZpbGw9IiMwMDAwMDAiIGZvbnQtZmFtaWx5PSJWZXJkYW5hIiBmb250LXNpemU9IjE0IiBsZW5ndGhBZGp1c3Q9InNwYWNpbmciIHRleHRMZW5ndGg9IjExMyIgeD0iMzAiIHk9IjI5Ni45ODQ0Ij51c2VyTmFtZTogU3RyaW5nPC90ZXh0Pjx0ZXh0IGZpbGw9IiMwMDAwMDAiIGZvbnQtZmFtaWx5PSJWZXJkYW5hIiBmb250LXNpemU9IjE0IiBsZW5ndGhBZGp1c3Q9InNwYWNpbmciIHRleHRMZW5ndGg9IjEyNyIgeD0iMzAiIHk9IjMxMS45Njg4Ij5jcmVhdGVUaW1lOiBTdHJpbmc8L3RleHQ+PHRleHQgZmlsbD0iIzAwMDAwMCIgZm9udC1mYW1pbHk9IlZlcmRhbmEiIGZvbnQtc2l6ZT0iMTQiIGxlbmd0aEFkanVzdD0ic3BhY2luZyIgdGV4dExlbmd0aD0iMTA1IiB4PSIzMCIgeT0iMzI2Ljk1MzEiPnN0YXR1czogSW50ZWdlcjwvdGV4dD48dGV4dCBmaWxsPSIjMDAwMDAwIiBmb250LWZhbWlseT0iVmVyZGFuYSIgZm9udC1zaXplPSIxNCIgbGVuZ3RoQWRqdXN0PSJzcGFjaW5nIiB0ZXh0TGVuZ3RoPSIxMDUiIHg9IjMwIiB5PSIzNDEuOTM3NSI+YWRkcmVzczogU3RyaW5nPC90ZXh0Pjx0ZXh0IGZpbGw9IiMwMDAwMDAiIGZvbnQtZmFtaWx5PSJWZXJkYW5hIiBmb250LXNpemU9IjE0IiBsZW5ndGhBZGp1c3Q9InNwYWNpbmciIHRleHRMZW5ndGg9IjcwIiB4PSIzMCIgeT0iMzU2LjkyMTkiPmlkOiBTdHJpbmc8L3RleHQ+PHRleHQgZmlsbD0iIzAwMDAwMCIgZm9udC1mYW1pbHk9IlZlcmRhbmEiIGZvbnQtc2l6ZT0iMTQiIGxlbmd0aEFkanVzdD0ic3BhY2luZyIgdGV4dExlbmd0aD0iOTEiIHg9IjMwIiB5PSIzNzEuOTA2MyI+dHlwZTogSW50ZWdlcjwvdGV4dD48bGluZSBzdHlsZT0ic3Ryb2tlOiMwMDAwMDA7c3Ryb2tlLXdpZHRoOjEuMDsiIHgxPSIxMyIgeDI9IjE2MyIgeTE9IjM3Ny42NTYzIiB5Mj0iMzc3LjY1NjMiLz48ZWxsaXBzZSBjeD0iMjMiIGN5PSIzOTAuNjQ4NCIgZmlsbD0iI0ZGRkZGRiIgcng9IjMiIHJ5PSIzIiBzdHlsZT0ic3Ryb2tlOiMwMDAwMDA7c3Ryb2tlLXdpZHRoOjEuMDsiLz48dGV4dCBmaWxsPSIjMDAwMDAwIiBmb250LWZhbWlseT0iVmVyZGFuYSIgZm9udC1zaXplPSIxNCIgbGVuZ3RoQWRqdXN0PSJzcGFjaW5nIiB0ZXh0TGVuZ3RoPSI1OCIgeD0iMzAiIHk9IjM5NC44OTA2Ij5Vc2VycygpOjwvdGV4dD48ZWxsaXBzZSBjeD0iMjMiIGN5PSI0MDUuNjMyOCIgZmlsbD0iI0ZGRkZGRiIgcng9IjMiIHJ5PSIzIiBzdHlsZT0ic3Ryb2tlOiMwMDAwMDA7c3Ryb2tlLXdpZHRoOjEuMDsiLz48dGV4dCBmaWxsPSIjMDAwMDAwIiBmb250LWZhbWlseT0iVmVyZGFuYSIgZm9udC1zaXplPSIxNCIgbGVuZ3RoQWRqdXN0PSJzcGFjaW5nIiB0ZXh0TGVuZ3RoPSIxMjgiIHg9IjMwIiB5PSI0MDkuODc1Ij50b1N0cmluZygpOiBTdHJpbmc8L3RleHQ+PC9nPjwhLS1TUkM9W1JQNG4zaThtMzROdGRDOWk4Q0c1azA0QjJvMWNxclhqSDZqN1pYYUd1a3dhSEs5QW8xUV9WQ1YtRm9pUlEyQTg4bVBzOVg1Q3UyUGNDZTRGSWZxNU9QVmtXSUNnSlowNjlkajYwYjRSbkJia245SldhYVdKbDFwMHpkalVSX1FHZ25xNGx1VUpRVTEtQU1ETU5xTEJzMUR4cVdBWHpxZWY1SW1Qc1lFWjBubHJmMGxoYkQzZTcyT2dmOG1MYzVTa0VuenZwTUNqWXVEbUlSMGwtaE92ZGtfanhGMmRnbVVzVkZ4UmgxX182enpRaWNzdjRLdVptXzh0Z2IzVTdtMDBdLS0+PC9nPjwvc3ZnPg==;" vertex="1" parent="1">
            <mxGeometry x="460" y="360" width="178" height="429" as="geometry" />
          </mxCell>
        </UserObject>
        <UserObject label="" plantUmlData="{&#xa;  &quot;data&quot;: &quot;@startuml\n\n!theme plain\ntop to bottom direction\nskinparam linetype ortho\n\ninterface BaseService&lt;T, Pk&gt; &lt;&lt; interface &gt;&gt; {\n  + getOne(Pk): T\n  + delete(T): void\n  + update(T): void\n  + add(T): void\n}\ninterface UsersService &lt;&lt; interface &gt;&gt; {\n  + isRemove(String): Boolean\n  + getUserByUserName(String): Users\n  + getPageInfo(Long, Long, Users): PageData\n}\nclass UsersServiceImpl {\n  + UsersServiceImpl(): \n  + add(Users): void\n  + delete(Users): void\n  + update(Users): void\n  + isRemove(String): Boolean\n  + getPageInfo(Long, Long, Users): PageData\n  + parsePage(Page&lt;Users&gt;): PageData\n  + getUserByUserName(String): Users\n  + getOne(String): Users\n}\n\nUsersService      -[#008200,plain]-^  BaseService      \nUsersServiceImpl  -[#008200,dashed]-^  UsersService     \n@enduml\n&quot;,&#xa;  &quot;format&quot;: &quot;svg&quot;&#xa;}" id="WzdI1a4IJHju0GnlryfJ-4">
          <mxCell style="shape=image;noLabel=1;verticalAlign=top;aspect=fixed;imageAspect=0;image=data:image/svg+xml,PD94bWwgdmVyc2lvbj0iMS4wIiBlbmNvZGluZz0idXMtYXNjaWkiIHN0YW5kYWxvbmU9Im5vIj8+PHN2ZyB4bWxucz0iaHR0cDovL3d3dy53My5vcmcvMjAwMC9zdmciIHhtbG5zOnhsaW5rPSJodHRwOi8vd3d3LnczLm9yZy8xOTk5L3hsaW5rIiBjb250ZW50U3R5bGVUeXBlPSJ0ZXh0L2NzcyIgaGVpZ2h0PSI1MzBweCIgcHJlc2VydmVBc3BlY3RSYXRpbz0ibm9uZSIgc3R5bGU9IndpZHRoOjMyNXB4O2hlaWdodDo1MzBweDtiYWNrZ3JvdW5kOiNGRkZGRkY7IiB2ZXJzaW9uPSIxLjEiIHZpZXdCb3g9IjAgMCAzMjUgNTMwIiB3aWR0aD0iMzI1cHgiIHpvb21BbmRQYW49Im1hZ25pZnkiPjxkZWZzLz48Zz48IS0tY2xhc3MgQmFzZVNlcnZpY2UtLT48ZyBpZD0iZWxlbV9CYXNlU2VydmljZSI+PHJlY3QgY29kZUxpbmU9IjUiIGZpbGw9IiNGRkZGRkYiIGhlaWdodD0iMTEzLjc2NTYiIGlkPSJCYXNlU2VydmljZSIgcng9IjIuNSIgcnk9IjIuNSIgc3R5bGU9InN0cm9rZTojMDAwMDAwO3N0cm9rZS13aWR0aDoxLjA7IiB3aWR0aD0iMTQwIiB4PSI5NSIgeT0iNDEwIi8+PGVsbGlwc2UgY3g9IjEwOCIgY3k9IjQyOC45MTQxIiBmaWxsPSIjRkZGRkZGIiByeD0iOSIgcnk9IjkiIHN0eWxlPSJzdHJva2U6IzAwMDAwMDtzdHJva2Utd2lkdGg6MS4wOyIvPjxwYXRoIGQ9Ik0xMTEuMTI1LDQzNC45MTQxIEwxMTEuMTI1LDQzMy4xNjQxIEwxMDksNDMzLjE2NDEgUTEwOSw0MzMuMTY0MSAxMDksNDI1LjM1MTYgTDExMS4xMjUsNDI1LjM1MTYgTDExMS4xMjUsNDIzLjYwMTYgTDEwNS4xMjUsNDIzLjYwMTYgTDEwNS4xMjUsNDI1LjM1MTYgTDEwNy4yNSw0MjUuMzUxNiBRMTA3LjI1LDQyNS4zNTE2IDEwNy4yNSw0MzMuMTY0MSBMMTA1LjEyNSw0MzMuMTY0MSBMMTA1LjEyNSw0MzQuOTE0MSBMMTExLjEyNSw0MzQuOTE0MSBaICIgZmlsbD0iIzAwMDAwMCIvPjx0ZXh0IGZpbGw9IiMwMDAwMDAiIGZvbnQtZmFtaWx5PSJWZXJkYW5hIiBmb250LXNpemU9IjEyIiBmb250LXN0eWxlPSJpdGFsaWMiIGxlbmd0aEFkanVzdD0ic3BhY2luZyIgdGV4dExlbmd0aD0iNzEiIHg9IjEyMyIgeT0iNDI2LjM0MzgiPiYjMTcxO2ludGVyZmFjZSYjMTg3OzwvdGV4dD48dGV4dCBmaWxsPSIjMDAwMDAwIiBmb250LWZhbWlseT0iVmVyZGFuYSIgZm9udC1zaXplPSIxNCIgZm9udC1zdHlsZT0iaXRhbGljIiBsZW5ndGhBZGp1c3Q9InNwYWNpbmciIHRleHRMZW5ndGg9Ijc3IiB4PSIxMjAiIHk9IjQ0MS4wNzgxIj5CYXNlU2VydmljZTwvdGV4dD48cmVjdCBmaWxsPSIjRkZGRkZGIiBoZWlnaHQ9IjE0Ljg0MzgiIHN0eWxlPSJzdHJva2U6IzAwMDAwMDtzdHJva2Utd2lkdGg6MS4wO3N0cm9rZS1kYXNoYXJyYXk6Mi4wLDIuMDsiIHdpZHRoPSIzMyIgeD0iMjA1IiB5PSI0MDciLz48dGV4dCBmaWxsPSIjMDAwMDAwIiBmb250LWZhbWlseT0iVmVyZGFuYSIgZm9udC1zaXplPSIxMiIgZm9udC1zdHlsZT0iaXRhbGljIiBsZW5ndGhBZGp1c3Q9InNwYWNpbmciIHRleHRMZW5ndGg9IjMxIiB4PSIyMDYiIHk9IjQxOS4zNDM4Ij5ULCBQazwvdGV4dD48bGluZSBzdHlsZT0ic3Ryb2tlOiMwMDAwMDA7c3Ryb2tlLXdpZHRoOjEuMDsiIHgxPSI5NiIgeDI9IjIzNCIgeTE9IjQ0Ny44MjgxIiB5Mj0iNDQ3LjgyODEiLz48bGluZSBzdHlsZT0ic3Ryb2tlOiMwMDAwMDA7c3Ryb2tlLXdpZHRoOjEuMDsiIHgxPSI5NiIgeDI9IjIzNCIgeTE9IjQ1NS44MjgxIiB5Mj0iNDU1LjgyODEiLz48ZWxsaXBzZSBjeD0iMTA2IiBjeT0iNDY4LjgyMDMiIGZpbGw9IiNGRkZGRkYiIHJ4PSIzIiByeT0iMyIgc3R5bGU9InN0cm9rZTojMDAwMDAwO3N0cm9rZS13aWR0aDoxLjA7Ii8+PHRleHQgZmlsbD0iIzAwMDAwMCIgZm9udC1mYW1pbHk9IlZlcmRhbmEiIGZvbnQtc2l6ZT0iMTQiIGxlbmd0aEFkanVzdD0ic3BhY2luZyIgdGV4dExlbmd0aD0iOTMiIHg9IjExMyIgeT0iNDczLjA2MjUiPmdldE9uZShQayk6IFQ8L3RleHQ+PGVsbGlwc2UgY3g9IjEwNiIgY3k9IjQ4My44MDQ3IiBmaWxsPSIjRkZGRkZGIiByeD0iMyIgcnk9IjMiIHN0eWxlPSJzdHJva2U6IzAwMDAwMDtzdHJva2Utd2lkdGg6MS4wOyIvPjx0ZXh0IGZpbGw9IiMwMDAwMDAiIGZvbnQtZmFtaWx5PSJWZXJkYW5hIiBmb250LXNpemU9IjE0IiBsZW5ndGhBZGp1c3Q9InNwYWNpbmciIHRleHRMZW5ndGg9IjEwNyIgeD0iMTEzIiB5PSI0ODguMDQ2OSI+ZGVsZXRlKFQpOiB2b2lkPC90ZXh0PjxlbGxpcHNlIGN4PSIxMDYiIGN5PSI0OTguNzg5MSIgZmlsbD0iI0ZGRkZGRiIgcng9IjMiIHJ5PSIzIiBzdHlsZT0ic3Ryb2tlOiMwMDAwMDA7c3Ryb2tlLXdpZHRoOjEuMDsiLz48dGV4dCBmaWxsPSIjMDAwMDAwIiBmb250LWZhbWlseT0iVmVyZGFuYSIgZm9udC1zaXplPSIxNCIgbGVuZ3RoQWRqdXN0PSJzcGFjaW5nIiB0ZXh0TGVuZ3RoPSIxMDciIHg9IjExMyIgeT0iNTAzLjAzMTMiPnVwZGF0ZShUKTogdm9pZDwvdGV4dD48ZWxsaXBzZSBjeD0iMTA2IiBjeT0iNTEzLjc3MzQiIGZpbGw9IiNGRkZGRkYiIHJ4PSIzIiByeT0iMyIgc3R5bGU9InN0cm9rZTojMDAwMDAwO3N0cm9rZS13aWR0aDoxLjA7Ii8+PHRleHQgZmlsbD0iIzAwMDAwMCIgZm9udC1mYW1pbHk9IlZlcmRhbmEiIGZvbnQtc2l6ZT0iMTQiIGxlbmd0aEFkanVzdD0ic3BhY2luZyIgdGV4dExlbmd0aD0iODYiIHg9IjExMyIgeT0iNTE4LjAxNTYiPmFkZChUKTogdm9pZDwvdGV4dD48L2c+PCEtLWNsYXNzIFVzZXJzU2VydmljZS0tPjxnIGlkPSJlbGVtX1VzZXJzU2VydmljZSI+PHJlY3QgY29kZUxpbmU9IjExIiBmaWxsPSIjRkZGRkZGIiBoZWlnaHQ9Ijk4Ljc4MTMiIGlkPSJVc2Vyc1NlcnZpY2UiIHJ4PSIyLjUiIHJ5PSIyLjUiIHN0eWxlPSJzdHJva2U6IzAwMDAwMDtzdHJva2Utd2lkdGg6MS4wOyIgd2lkdGg9IjMwNiIgeD0iMTIiIHk9IjI1MSIvPjxlbGxpcHNlIGN4PSIxMTkuMjUiIGN5PSIyNjkuOTE0MSIgZmlsbD0iI0ZGRkZGRiIgcng9IjkiIHJ5PSI5IiBzdHlsZT0ic3Ryb2tlOiMwMDAwMDA7c3Ryb2tlLXdpZHRoOjEuMDsiLz48cGF0aCBkPSJNMTIyLjM3NSwyNzUuOTE0MSBMMTIyLjM3NSwyNzQuMTY0MSBMMTIwLjI1LDI3NC4xNjQxIFExMjAuMjUsMjc0LjE2NDEgMTIwLjI1LDI2Ni4zNTE2IEwxMjIuMzc1LDI2Ni4zNTE2IEwxMjIuMzc1LDI2NC42MDE2IEwxMTYuMzc1LDI2NC42MDE2IEwxMTYuMzc1LDI2Ni4zNTE2IEwxMTguNSwyNjYuMzUxNiBRMTE4LjUsMjY2LjM1MTYgMTE4LjUsMjc0LjE2NDEgTDExNi4zNzUsMjc0LjE2NDEgTDExNi4zNzUsMjc1LjkxNDEgTDEyMi4zNzUsMjc1LjkxNDEgWiAiIGZpbGw9IiMwMDAwMDAiLz48dGV4dCBmaWxsPSIjMDAwMDAwIiBmb250LWZhbWlseT0iVmVyZGFuYSIgZm9udC1zaXplPSIxMiIgZm9udC1zdHlsZT0iaXRhbGljIiBsZW5ndGhBZGp1c3Q9InNwYWNpbmciIHRleHRMZW5ndGg9IjcxIiB4PSIxNDMuMjUiIHk9IjI2Ny4zNDM4Ij4mIzE3MTtpbnRlcmZhY2UmIzE4Nzs8L3RleHQ+PHRleHQgZmlsbD0iIzAwMDAwMCIgZm9udC1mYW1pbHk9IlZlcmRhbmEiIGZvbnQtc2l6ZT0iMTQiIGZvbnQtc3R5bGU9Iml0YWxpYyIgbGVuZ3RoQWRqdXN0PSJzcGFjaW5nIiB0ZXh0TGVuZ3RoPSI4NCIgeD0iMTM2Ljc1IiB5PSIyODIuMDc4MSI+VXNlcnNTZXJ2aWNlPC90ZXh0PjxsaW5lIHN0eWxlPSJzdHJva2U6IzAwMDAwMDtzdHJva2Utd2lkdGg6MS4wOyIgeDE9IjEzIiB4Mj0iMzE3IiB5MT0iMjg4LjgyODEiIHkyPSIyODguODI4MSIvPjxsaW5lIHN0eWxlPSJzdHJva2U6IzAwMDAwMDtzdHJva2Utd2lkdGg6MS4wOyIgeDE9IjEzIiB4Mj0iMzE3IiB5MT0iMjk2LjgyODEiIHkyPSIyOTYuODI4MSIvPjxlbGxpcHNlIGN4PSIyMyIgY3k9IjMwOS44MjAzIiBmaWxsPSIjRkZGRkZGIiByeD0iMyIgcnk9IjMiIHN0eWxlPSJzdHJva2U6IzAwMDAwMDtzdHJva2Utd2lkdGg6MS4wOyIvPjx0ZXh0IGZpbGw9IiMwMDAwMDAiIGZvbnQtZmFtaWx5PSJWZXJkYW5hIiBmb250LXNpemU9IjE0IiBsZW5ndGhBZGp1c3Q9InNwYWNpbmciIHRleHRMZW5ndGg9IjE3OCIgeD0iMzAiIHk9IjMxNC4wNjI1Ij5pc1JlbW92ZShTdHJpbmcpOiBCb29sZWFuPC90ZXh0PjxlbGxpcHNlIGN4PSIyMyIgY3k9IjMyNC44MDQ3IiBmaWxsPSIjRkZGRkZGIiByeD0iMyIgcnk9IjMiIHN0eWxlPSJzdHJva2U6IzAwMDAwMDtzdHJva2Utd2lkdGg6MS4wOyIvPjx0ZXh0IGZpbGw9IiMwMDAwMDAiIGZvbnQtZmFtaWx5PSJWZXJkYW5hIiBmb250LXNpemU9IjE0IiBsZW5ndGhBZGp1c3Q9InNwYWNpbmciIHRleHRMZW5ndGg9IjIyNyIgeD0iMzAiIHk9IjMyOS4wNDY5Ij5nZXRVc2VyQnlVc2VyTmFtZShTdHJpbmcpOiBVc2VyczwvdGV4dD48ZWxsaXBzZSBjeD0iMjMiIGN5PSIzMzkuNzg5MSIgZmlsbD0iI0ZGRkZGRiIgcng9IjMiIHJ5PSIzIiBzdHlsZT0ic3Ryb2tlOiMwMDAwMDA7c3Ryb2tlLXdpZHRoOjEuMDsiLz48dGV4dCBmaWxsPSIjMDAwMDAwIiBmb250LWZhbWlseT0iVmVyZGFuYSIgZm9udC1zaXplPSIxNCIgbGVuZ3RoQWRqdXN0PSJzcGFjaW5nIiB0ZXh0TGVuZ3RoPSIyODIiIHg9IjMwIiB5PSIzNDQuMDMxMyI+Z2V0UGFnZUluZm8oTG9uZywgTG9uZywgVXNlcnMpOiBQYWdlRGF0YTwvdGV4dD48L2c+PCEtLWNsYXNzIFVzZXJzU2VydmljZUltcGwtLT48ZyBpZD0iZWxlbV9Vc2Vyc1NlcnZpY2VJbXBsIj48cmVjdCBjb2RlTGluZT0iMTYiIGZpbGw9IiNGRkZGRkYiIGhlaWdodD0iMTc4Ljg1OTQiIGlkPSJVc2Vyc1NlcnZpY2VJbXBsIiByeD0iMi41IiByeT0iMi41IiBzdHlsZT0ic3Ryb2tlOiMwMDAwMDA7c3Ryb2tlLXdpZHRoOjEuMDsiIHdpZHRoPSIzMDYiIHg9IjEyIiB5PSIxMiIvPjxlbGxpcHNlIGN4PSIxMDQuNzUiIGN5PSIyNiIgZmlsbD0iI0ZGRkZGRiIgcng9IjkiIHJ5PSI5IiBzdHlsZT0ic3Ryb2tlOiMwMDAwMDA7c3Ryb2tlLXdpZHRoOjEuMDsiLz48cGF0aCBkPSJNMTAyLjM3NSwzMC4yNSBMMTAyLjM3NSwzMiBMMTA3LjMxMjUsMzIgTDEwNy4zMTI1LDMwLjI1IEwxMDIuMzc1LDMwLjI1IFogTTEwMy4wNjI1LDMwLjkzNzUgUTEwMy4wNjI1LDMwLjkzNzUgMTAzLjA2MjUsMjEuNzUgTDEwMS4zMTI1LDIxLjc1IFExMDEuMzEyNSwyMS43NSAxMDEuMzEyNSwzMC45Mzc1IEwxMDMuMDYyNSwzMC45Mzc1IFogTTEwNi42MjUsMzAuOTM3NSBMMTA4LjM3NSwzMC45Mzc1IFExMDguMzc1LDMwLjkzNzUgMTA4LjM3NSwyOC4xMjUgTDEwNi42MjUsMjguMTI1IFExMDYuNjI1LDI4LjEyNSAxMDYuNjI1LDMwLjkzNzUgWiBNMTA2LjYyNSwyMS43NSBRMTA2LjYyNSwyMS43NSAxMDYuNjI1LDI0LjU2MjUgTDEwOC4zNzUsMjQuNTYyNSBRMTA4LjM3NSwyNC41NjI1IDEwOC4zNzUsMjEuNzUgTDEwNi42MjUsMjEuNzUgWiBNMTAyLjM3NSwyMi40Mzc1IEwxMDcuMzEyNSwyMi40Mzc1IEwxMDcuMzEyNSwyMC42ODc1IEwxMDIuMzc1LDIwLjY4NzUgTDEwMi4zNzUsMjIuNDM3NSBaICIgZmlsbD0iIzAwMDAwMCIvPjx0ZXh0IGZpbGw9IiMwMDAwMDAiIGZvbnQtZmFtaWx5PSJWZXJkYW5hIiBmb250LXNpemU9IjE0IiBsZW5ndGhBZGp1c3Q9InNwYWNpbmciIHRleHRMZW5ndGg9IjExMyIgeD0iMTIyLjI1IiB5PSIzMS43NDIyIj5Vc2Vyc1NlcnZpY2VJbXBsPC90ZXh0PjxsaW5lIHN0eWxlPSJzdHJva2U6IzAwMDAwMDtzdHJva2Utd2lkdGg6MS4wOyIgeDE9IjEzIiB4Mj0iMzE3IiB5MT0iNDAiIHkyPSI0MCIvPjxsaW5lIHN0eWxlPSJzdHJva2U6IzAwMDAwMDtzdHJva2Utd2lkdGg6MS4wOyIgeDE9IjEzIiB4Mj0iMzE3IiB5MT0iNDgiIHkyPSI0OCIvPjxlbGxpcHNlIGN4PSIyMyIgY3k9IjYwLjk5MjIiIGZpbGw9IiNGRkZGRkYiIHJ4PSIzIiByeT0iMyIgc3R5bGU9InN0cm9rZTojMDAwMDAwO3N0cm9rZS13aWR0aDoxLjA7Ii8+PHRleHQgZmlsbD0iIzAwMDAwMCIgZm9udC1mYW1pbHk9IlZlcmRhbmEiIGZvbnQtc2l6ZT0iMTQiIGxlbmd0aEFkanVzdD0ic3BhY2luZyIgdGV4dExlbmd0aD0iMTM2IiB4PSIzMCIgeT0iNjUuMjM0NCI+VXNlcnNTZXJ2aWNlSW1wbCgpOjwvdGV4dD48ZWxsaXBzZSBjeD0iMjMiIGN5PSI3NS45NzY2IiBmaWxsPSIjRkZGRkZGIiByeD0iMyIgcnk9IjMiIHN0eWxlPSJzdHJva2U6IzAwMDAwMDtzdHJva2Utd2lkdGg6MS4wOyIvPjx0ZXh0IGZpbGw9IiMwMDAwMDAiIGZvbnQtZmFtaWx5PSJWZXJkYW5hIiBmb250LXNpemU9IjE0IiBsZW5ndGhBZGp1c3Q9InNwYWNpbmciIHRleHRMZW5ndGg9IjExNCIgeD0iMzAiIHk9IjgwLjIxODgiPmFkZChVc2Vycyk6IHZvaWQ8L3RleHQ+PGVsbGlwc2UgY3g9IjIzIiBjeT0iOTAuOTYwOSIgZmlsbD0iI0ZGRkZGRiIgcng9IjMiIHJ5PSIzIiBzdHlsZT0ic3Ryb2tlOiMwMDAwMDA7c3Ryb2tlLXdpZHRoOjEuMDsiLz48dGV4dCBmaWxsPSIjMDAwMDAwIiBmb250LWZhbWlseT0iVmVyZGFuYSIgZm9udC1zaXplPSIxNCIgbGVuZ3RoQWRqdXN0PSJzcGFjaW5nIiB0ZXh0TGVuZ3RoPSIxMzUiIHg9IjMwIiB5PSI5NS4yMDMxIj5kZWxldGUoVXNlcnMpOiB2b2lkPC90ZXh0PjxlbGxpcHNlIGN4PSIyMyIgY3k9IjEwNS45NDUzIiBmaWxsPSIjRkZGRkZGIiByeD0iMyIgcnk9IjMiIHN0eWxlPSJzdHJva2U6IzAwMDAwMDtzdHJva2Utd2lkdGg6MS4wOyIvPjx0ZXh0IGZpbGw9IiMwMDAwMDAiIGZvbnQtZmFtaWx5PSJWZXJkYW5hIiBmb250LXNpemU9IjE0IiBsZW5ndGhBZGp1c3Q9InNwYWNpbmciIHRleHRMZW5ndGg9IjEzNSIgeD0iMzAiIHk9IjExMC4xODc1Ij51cGRhdGUoVXNlcnMpOiB2b2lkPC90ZXh0PjxlbGxpcHNlIGN4PSIyMyIgY3k9IjEyMC45Mjk3IiBmaWxsPSIjRkZGRkZGIiByeD0iMyIgcnk9IjMiIHN0eWxlPSJzdHJva2U6IzAwMDAwMDtzdHJva2Utd2lkdGg6MS4wOyIvPjx0ZXh0IGZpbGw9IiMwMDAwMDAiIGZvbnQtZmFtaWx5PSJWZXJkYW5hIiBmb250LXNpemU9IjE0IiBsZW5ndGhBZGp1c3Q9InNwYWNpbmciIHRleHRMZW5ndGg9IjE3OCIgeD0iMzAiIHk9IjEyNS4xNzE5Ij5pc1JlbW92ZShTdHJpbmcpOiBCb29sZWFuPC90ZXh0PjxlbGxpcHNlIGN4PSIyMyIgY3k9IjEzNS45MTQxIiBmaWxsPSIjRkZGRkZGIiByeD0iMyIgcnk9IjMiIHN0eWxlPSJzdHJva2U6IzAwMDAwMDtzdHJva2Utd2lkdGg6MS4wOyIvPjx0ZXh0IGZpbGw9IiMwMDAwMDAiIGZvbnQtZmFtaWx5PSJWZXJkYW5hIiBmb250LXNpemU9IjE0IiBsZW5ndGhBZGp1c3Q9InNwYWNpbmciIHRleHRMZW5ndGg9IjI4MiIgeD0iMzAiIHk9IjE0MC4xNTYzIj5nZXRQYWdlSW5mbyhMb25nLCBMb25nLCBVc2Vycyk6IFBhZ2VEYXRhPC90ZXh0PjxlbGxpcHNlIGN4PSIyMyIgY3k9IjE1MC44OTg0IiBmaWxsPSIjRkZGRkZGIiByeD0iMyIgcnk9IjMiIHN0eWxlPSJzdHJva2U6IzAwMDAwMDtzdHJva2Utd2lkdGg6MS4wOyIvPjx0ZXh0IGZpbGw9IiMwMDAwMDAiIGZvbnQtZmFtaWx5PSJWZXJkYW5hIiBmb250LXNpemU9IjE0IiBsZW5ndGhBZGp1c3Q9InNwYWNpbmciIHRleHRMZW5ndGg9IjIyNiIgeD0iMzAiIHk9IjE1NS4xNDA2Ij5wYXJzZVBhZ2UoUGFnZSZsdDtVc2VycyZndDspOiBQYWdlRGF0YTwvdGV4dD48ZWxsaXBzZSBjeD0iMjMiIGN5PSIxNjUuODgyOCIgZmlsbD0iI0ZGRkZGRiIgcng9IjMiIHJ5PSIzIiBzdHlsZT0ic3Ryb2tlOiMwMDAwMDA7c3Ryb2tlLXdpZHRoOjEuMDsiLz48dGV4dCBmaWxsPSIjMDAwMDAwIiBmb250LWZhbWlseT0iVmVyZGFuYSIgZm9udC1zaXplPSIxNCIgbGVuZ3RoQWRqdXN0PSJzcGFjaW5nIiB0ZXh0TGVuZ3RoPSIyMjciIHg9IjMwIiB5PSIxNzAuMTI1Ij5nZXRVc2VyQnlVc2VyTmFtZShTdHJpbmcpOiBVc2VyczwvdGV4dD48ZWxsaXBzZSBjeD0iMjMiIGN5PSIxODAuODY3MiIgZmlsbD0iI0ZGRkZGRiIgcng9IjMiIHJ5PSIzIiBzdHlsZT0ic3Ryb2tlOiMwMDAwMDA7c3Ryb2tlLXdpZHRoOjEuMDsiLz48dGV4dCBmaWxsPSIjMDAwMDAwIiBmb250LWZhbWlseT0iVmVyZGFuYSIgZm9udC1zaXplPSIxNCIgbGVuZ3RoQWRqdXN0PSJzcGFjaW5nIiB0ZXh0TGVuZ3RoPSIxNDkiIHg9IjMwIiB5PSIxODUuMTA5NCI+Z2V0T25lKFN0cmluZyk6IFVzZXJzPC90ZXh0PjwvZz48IS0tbGluayBVc2Vyc1NlcnZpY2UgdG8gQmFzZVNlcnZpY2UtLT48ZyBpZD0ibGlua19Vc2Vyc1NlcnZpY2VfQmFzZVNlcnZpY2UiPjxwYXRoIGNvZGVMaW5lPSIyOCIgZD0iTTE2NSwzNTAgQzE2NSwzNTAgMTY1LDM4OS43OCAxNjUsMzg5Ljc4ICIgZmlsbD0ibm9uZSIgaWQ9IlVzZXJzU2VydmljZS10by1CYXNlU2VydmljZSIgc3R5bGU9InN0cm9rZTojMDA4MjAwO3N0cm9rZS13aWR0aDoxLjA7Ii8+PHBvbHlnb24gZmlsbD0ibm9uZSIgcG9pbnRzPSIxNzIsMzg5Ljc4LDE2NSw0MDkuNzgsMTU4LDM4OS43OCwxNzIsMzg5Ljc4IiBzdHlsZT0ic3Ryb2tlOiMwMDgyMDA7c3Ryb2tlLXdpZHRoOjEuMDsiLz48L2c+PCEtLWxpbmsgVXNlcnNTZXJ2aWNlSW1wbCB0byBVc2Vyc1NlcnZpY2UtLT48ZyBpZD0ibGlua19Vc2Vyc1NlcnZpY2VJbXBsX1VzZXJzU2VydmljZSI+PHBhdGggY29kZUxpbmU9IjI5IiBkPSJNMTY1LDE5MS4xIEMxNjUsMTkxLjEgMTY1LDIzMC44NSAxNjUsMjMwLjg1ICIgZmlsbD0ibm9uZSIgaWQ9IlVzZXJzU2VydmljZUltcGwtdG8tVXNlcnNTZXJ2aWNlIiBzdHlsZT0ic3Ryb2tlOiMwMDgyMDA7c3Ryb2tlLXdpZHRoOjEuMDtzdHJva2UtZGFzaGFycmF5OjcuMCw3LjA7Ii8+PHBvbHlnb24gZmlsbD0ibm9uZSIgcG9pbnRzPSIxNzIsMjMwLjg1LDE2NSwyNTAuODUsMTU4LDIzMC44NSwxNzIsMjMwLjg1IiBzdHlsZT0ic3Ryb2tlOiMwMDgyMDA7c3Ryb2tlLXdpZHRoOjEuMDsiLz48L2c+PCEtLVNSQz1bWlA5REl5RDA0OFJsLW9qNmw0SGk4TldJMkphS0JtTkhPRWo5NUNSaUQ1c0l4OEpUakwyYV96dGlEY3RKMUI1eGNDQ3hwdHBsYkxqSkpUMUtnQkhtdDgxWi02QmRrMFFmM0VMRWlIUXNMQmYxV3BMS0lmRlJEV0hpdDlnNUtEZ0hNTTVFQzREQjJwOFJiTEVvZDQxTWZmMGFTRkFkQVZtOFc1aWVvQnJlWWhCb3ZXNk1HUDVLYVFEZXNHZVJMWjlldHV0NGVPUElkZUhUaF9RUjlNRXh1ZHpLTFZRTFFqdkdqNzE2d1FCRENjRWsyRk1YOXZ6WmpsTnM2VWlVNWQ4VmUwbUJja2lMSHEtaVltZGlSSTFRcVppVnFNN1JNYndYak1UanBVa2N3YmVQb2I0UlV2cGxhRW11VEJVU2FUdWpRQUpfRS1YYkN0WXVGUmFiaHFKVTk4NTlYejJiZ19DdDd0WHNHZm5UQmhwZi10S1N0el81eUlKeW9PX2Y5X0pfclh1SWV6TnN1WUpRRFNhR3NDVC0wRzAwXS0tPjwvZz48L3N2Zz4=;" vertex="1" parent="1">
            <mxGeometry x="30" y="490" width="325" height="530" as="geometry" />
          </mxCell>
        </UserObject>
        <UserObject label="" plantUmlData="{&#xa;  &quot;data&quot;: &quot;@startuml\nactor Actor\nparticipant UsersController\nparticipant UsersService as US\n\nActor -&gt; UsersController : getPageInfos\nactivate UsersController\nUsersController -&gt; US : getPageInfo\nactivate US\nUS -&gt; UsersController : successData\ndeactivate US\ndeactivate UsersController\n@enduml&quot;,&#xa;  &quot;format&quot;: &quot;svg&quot;&#xa;}" id="WzdI1a4IJHju0GnlryfJ-5">
          <mxCell style="shape=image;noLabel=1;verticalAlign=top;aspect=fixed;imageAspect=0;image=data:image/svg+xml,PD94bWwgdmVyc2lvbj0iMS4wIiBlbmNvZGluZz0idXMtYXNjaWkiIHN0YW5kYWxvbmU9Im5vIj8+PHN2ZyB4bWxucz0iaHR0cDovL3d3dy53My5vcmcvMjAwMC9zdmciIHhtbG5zOnhsaW5rPSJodHRwOi8vd3d3LnczLm9yZy8xOTk5L3hsaW5rIiBjb250ZW50U3R5bGVUeXBlPSJ0ZXh0L2NzcyIgaGVpZ2h0PSIyNjNweCIgcHJlc2VydmVBc3BlY3RSYXRpbz0ibm9uZSIgc3R5bGU9IndpZHRoOjMwNHB4O2hlaWdodDoyNjNweDtiYWNrZ3JvdW5kOiNGRkZGRkY7IiB2ZXJzaW9uPSIxLjEiIHZpZXdCb3g9IjAgMCAzMDQgMjYzIiB3aWR0aD0iMzA0cHgiIHpvb21BbmRQYW49Im1hZ25pZnkiPjxkZWZzLz48Zz48cmVjdCBmaWxsPSIjRkZGRkZGIiBoZWlnaHQ9IjU1LjgyODEiIHN0eWxlPSJzdHJva2U6IzE4MTgxODtzdHJva2Utd2lkdGg6MS4wOyIgd2lkdGg9IjEwIiB4PSIxMjUuNSIgeT0iMTA5Ljg5ODQiLz48cmVjdCBmaWxsPSIjRkZGRkZGIiBoZWlnaHQ9IjI3LjkxNDEiIHN0eWxlPSJzdHJva2U6IzE4MTgxODtzdHJva2Utd2lkdGg6MS4wOyIgd2lkdGg9IjEwIiB4PSIyNDQiIHk9IjEzNy44MTI1Ii8+PGxpbmUgc3R5bGU9InN0cm9rZTojMTgxODE4O3N0cm9rZS13aWR0aDowLjU7c3Ryb2tlLWRhc2hhcnJheTo1LjAsNS4wOyIgeDE9IjI1IiB4Mj0iMjUiIHkxPSI3OS45ODQ0IiB5Mj0iMTgzLjcyNjYiLz48bGluZSBzdHlsZT0ic3Ryb2tlOiMxODE4MTg7c3Ryb2tlLXdpZHRoOjAuNTtzdHJva2UtZGFzaGFycmF5OjUuMCw1LjA7IiB4MT0iMTMwIiB4Mj0iMTMwIiB5MT0iNzkuOTg0NCIgeTI9IjE4My43MjY2Ii8+PGxpbmUgc3R5bGU9InN0cm9rZTojMTgxODE4O3N0cm9rZS13aWR0aDowLjU7c3Ryb2tlLWRhc2hhcnJheTo1LjAsNS4wOyIgeDE9IjI0OSIgeDI9IjI0OSIgeTE9Ijc5Ljk4NDQiIHkyPSIxODMuNzI2NiIvPjx0ZXh0IGZpbGw9IiMwMDAwMDAiIGZvbnQtZmFtaWx5PSJzYW5zLXNlcmlmIiBmb250LXNpemU9IjE0IiBsZW5ndGhBZGp1c3Q9InNwYWNpbmciIHRleHRMZW5ndGg9IjM1IiB4PSI1IiB5PSI3OC4yMzQ0Ij5BY3RvcjwvdGV4dD48ZWxsaXBzZSBjeD0iMjUuNSIgY3k9IjEzLjUiIGZpbGw9IiNFMkUyRjAiIHJ4PSI4IiByeT0iOCIgc3R5bGU9InN0cm9rZTojMTgxODE4O3N0cm9rZS13aWR0aDowLjU7Ii8+PHBhdGggZD0iTTI1LjUsMjEuNSBMMjUuNSw0OC41IE0xMi41LDI5LjUgTDM4LjUsMjkuNSBNMjUuNSw0OC41IEwxMi41LDYzLjUgTTI1LjUsNDguNSBMMzguNSw2My41ICIgZmlsbD0ibm9uZSIgc3R5bGU9InN0cm9rZTojMTgxODE4O3N0cm9rZS13aWR0aDowLjU7Ii8+PHRleHQgZmlsbD0iIzAwMDAwMCIgZm9udC1mYW1pbHk9InNhbnMtc2VyaWYiIGZvbnQtc2l6ZT0iMTQiIGxlbmd0aEFkanVzdD0ic3BhY2luZyIgdGV4dExlbmd0aD0iMzUiIHg9IjUiIHk9IjE5NS45NjA5Ij5BY3RvcjwvdGV4dD48ZWxsaXBzZSBjeD0iMjUuNSIgY3k9IjIwNi4yMTA5IiBmaWxsPSIjRTJFMkYwIiByeD0iOCIgcnk9IjgiIHN0eWxlPSJzdHJva2U6IzE4MTgxODtzdHJva2Utd2lkdGg6MC41OyIvPjxwYXRoIGQ9Ik0yNS41LDIxNC4yMTA5IEwyNS41LDI0MS4yMTA5IE0xMi41LDIyMi4yMTA5IEwzOC41LDIyMi4yMTA5IE0yNS41LDI0MS4yMTA5IEwxMi41LDI1Ni4yMTA5IE0yNS41LDI0MS4yMTA5IEwzOC41LDI1Ni4yMTA5ICIgZmlsbD0ibm9uZSIgc3R5bGU9InN0cm9rZTojMTgxODE4O3N0cm9rZS13aWR0aDowLjU7Ii8+PHJlY3QgZmlsbD0iI0UyRTJGMCIgaGVpZ2h0PSIyOC45ODQ0IiByeD0iMi41IiByeT0iMi41IiBzdHlsZT0ic3Ryb2tlOiMxODE4MTg7c3Ryb2tlLXdpZHRoOjAuNTsiIHdpZHRoPSIxMTkiIHg9IjcxIiB5PSI1MCIvPjx0ZXh0IGZpbGw9IiMwMDAwMDAiIGZvbnQtZmFtaWx5PSJzYW5zLXNlcmlmIiBmb250LXNpemU9IjE0IiBsZW5ndGhBZGp1c3Q9InNwYWNpbmciIHRleHRMZW5ndGg9IjEwNSIgeD0iNzgiIHk9IjcwLjIzNDQiPlVzZXJzQ29udHJvbGxlcjwvdGV4dD48cmVjdCBmaWxsPSIjRTJFMkYwIiBoZWlnaHQ9IjI4Ljk4NDQiIHJ4PSIyLjUiIHJ5PSIyLjUiIHN0eWxlPSJzdHJva2U6IzE4MTgxODtzdHJva2Utd2lkdGg6MC41OyIgd2lkdGg9IjExOSIgeD0iNzEiIHk9IjE4Mi43MjY2Ii8+PHRleHQgZmlsbD0iIzAwMDAwMCIgZm9udC1mYW1pbHk9InNhbnMtc2VyaWYiIGZvbnQtc2l6ZT0iMTQiIGxlbmd0aEFkanVzdD0ic3BhY2luZyIgdGV4dExlbmd0aD0iMTA1IiB4PSI3OCIgeT0iMjAyLjk2MDkiPlVzZXJzQ29udHJvbGxlcjwvdGV4dD48cmVjdCBmaWxsPSIjRTJFMkYwIiBoZWlnaHQ9IjI4Ljk4NDQiIHJ4PSIyLjUiIHJ5PSIyLjUiIHN0eWxlPSJzdHJva2U6IzE4MTgxODtzdHJva2Utd2lkdGg6MC41OyIgd2lkdGg9Ijk4IiB4PSIyMDAiIHk9IjUwIi8+PHRleHQgZmlsbD0iIzAwMDAwMCIgZm9udC1mYW1pbHk9InNhbnMtc2VyaWYiIGZvbnQtc2l6ZT0iMTQiIGxlbmd0aEFkanVzdD0ic3BhY2luZyIgdGV4dExlbmd0aD0iODQiIHg9IjIwNyIgeT0iNzAuMjM0NCI+VXNlcnNTZXJ2aWNlPC90ZXh0PjxyZWN0IGZpbGw9IiNFMkUyRjAiIGhlaWdodD0iMjguOTg0NCIgcng9IjIuNSIgcnk9IjIuNSIgc3R5bGU9InN0cm9rZTojMTgxODE4O3N0cm9rZS13aWR0aDowLjU7IiB3aWR0aD0iOTgiIHg9IjIwMCIgeT0iMTgyLjcyNjYiLz48dGV4dCBmaWxsPSIjMDAwMDAwIiBmb250LWZhbWlseT0ic2Fucy1zZXJpZiIgZm9udC1zaXplPSIxNCIgbGVuZ3RoQWRqdXN0PSJzcGFjaW5nIiB0ZXh0TGVuZ3RoPSI4NCIgeD0iMjA3IiB5PSIyMDIuOTYwOSI+VXNlcnNTZXJ2aWNlPC90ZXh0PjxyZWN0IGZpbGw9IiNGRkZGRkYiIGhlaWdodD0iNTUuODI4MSIgc3R5bGU9InN0cm9rZTojMTgxODE4O3N0cm9rZS13aWR0aDoxLjA7IiB3aWR0aD0iMTAiIHg9IjEyNS41IiB5PSIxMDkuODk4NCIvPjxyZWN0IGZpbGw9IiNGRkZGRkYiIGhlaWdodD0iMjcuOTE0MSIgc3R5bGU9InN0cm9rZTojMTgxODE4O3N0cm9rZS13aWR0aDoxLjA7IiB3aWR0aD0iMTAiIHg9IjI0NCIgeT0iMTM3LjgxMjUiLz48cG9seWdvbiBmaWxsPSIjMTgxODE4IiBwb2ludHM9IjExMy41LDEwNS44OTg0LDEyMy41LDEwOS44OTg0LDExMy41LDExMy44OTg0LDExNy41LDEwOS44OTg0IiBzdHlsZT0ic3Ryb2tlOiMxODE4MTg7c3Ryb2tlLXdpZHRoOjEuMDsiLz48bGluZSBzdHlsZT0ic3Ryb2tlOiMxODE4MTg7c3Ryb2tlLXdpZHRoOjEuMDsiIHgxPSIyNS41IiB4Mj0iMTE5LjUiIHkxPSIxMDkuODk4NCIgeTI9IjEwOS44OTg0Ii8+PHRleHQgZmlsbD0iIzAwMDAwMCIgZm9udC1mYW1pbHk9InNhbnMtc2VyaWYiIGZvbnQtc2l6ZT0iMTMiIGxlbmd0aEFkanVzdD0ic3BhY2luZyIgdGV4dExlbmd0aD0iODEiIHg9IjMyLjUiIHk9IjEwNi4yNzM0Ij5nZXRQYWdlSW5mb3M8L3RleHQ+PHBvbHlnb24gZmlsbD0iIzE4MTgxOCIgcG9pbnRzPSIyMzIsMTMzLjgxMjUsMjQyLDEzNy44MTI1LDIzMiwxNDEuODEyNSwyMzYsMTM3LjgxMjUiIHN0eWxlPSJzdHJva2U6IzE4MTgxODtzdHJva2Utd2lkdGg6MS4wOyIvPjxsaW5lIHN0eWxlPSJzdHJva2U6IzE4MTgxODtzdHJva2Utd2lkdGg6MS4wOyIgeDE9IjEzNS41IiB4Mj0iMjM4IiB5MT0iMTM3LjgxMjUiIHkyPSIxMzcuODEyNSIvPjx0ZXh0IGZpbGw9IiMwMDAwMDAiIGZvbnQtZmFtaWx5PSJzYW5zLXNlcmlmIiBmb250LXNpemU9IjEzIiBsZW5ndGhBZGp1c3Q9InNwYWNpbmciIHRleHRMZW5ndGg9Ijc0IiB4PSIxNDIuNSIgeT0iMTM0LjE4NzUiPmdldFBhZ2VJbmZvPC90ZXh0Pjxwb2x5Z29uIGZpbGw9IiMxODE4MTgiIHBvaW50cz0iMTQxLjUsMTYxLjcyNjYsMTMxLjUsMTY1LjcyNjYsMTQxLjUsMTY5LjcyNjYsMTM3LjUsMTY1LjcyNjYiIHN0eWxlPSJzdHJva2U6IzE4MTgxODtzdHJva2Utd2lkdGg6MS4wOyIvPjxsaW5lIHN0eWxlPSJzdHJva2U6IzE4MTgxODtzdHJva2Utd2lkdGg6MS4wOyIgeDE9IjEzNS41IiB4Mj0iMjQ4IiB5MT0iMTY1LjcyNjYiIHkyPSIxNjUuNzI2NiIvPjx0ZXh0IGZpbGw9IiMwMDAwMDAiIGZvbnQtZmFtaWx5PSJzYW5zLXNlcmlmIiBmb250LXNpemU9IjEzIiBsZW5ndGhBZGp1c3Q9InNwYWNpbmciIHRleHRMZW5ndGg9Ijc2IiB4PSIxNDcuNSIgeT0iMTYyLjEwMTYiPnN1Y2Nlc3NEYXRhPC90ZXh0PjwhLS1TUkM9W1JTcjEyaTkwMzBOR1ZLd0gydFkxQldKSFpSbDJxMEU0LTJxM1BRT2FpVVZOVFpNanRHSjJ2X3FsNmpOdWpid1FuSTloZGdLNDNteHBVb3JYVFBmbWFZTk9hWEtpcGFDWXNYaHVTWnIyeGRYNHozQllNVHhMSUpKbzhlNl9XUURSZ3o5VURwWkhCcG5UeXV5Z3QxeUlHWS1xZWx0c3gwaTBdLS0+PC9nPjwvc3ZnPg==;" vertex="1" parent="1">
            <mxGeometry x="414" y="820" width="304" height="263" as="geometry" />
          </mxCell>
        </UserObject>
        <UserObject label="" plantUmlData="{&quot;data&quot;:&quot;@startuml\n\nactor Actor\nparticipant UsersController\nparticipant UsersService\nparticipant R\n\nActor -&gt; UsersController : getPageInfos\nactivate UsersController\nUsersController -&gt; UsersService : getPageInfo\nactivate UsersService\nUsersService -&gt; R : getPageInfo\nactivate R\nR --&gt; UsersService : successData\ndeactivate R\nUsersService --&gt; UsersController : successData\ndeactivate UsersService\nUsersController --&gt; Actor : successData\ndeactivate UsersController\n\n@enduml&quot;,&quot;format&quot;:&quot;svg&quot;}" id="WzdI1a4IJHju0GnlryfJ-6">
          <mxCell style="shape=image;noLabel=1;verticalAlign=top;aspect=fixed;imageAspect=0;image=data:image/svg+xml,PD94bWwgdmVyc2lvbj0iMS4wIiBlbmNvZGluZz0idXMtYXNjaWkiIHN0YW5kYWxvbmU9Im5vIj8+PHN2ZyB4bWxucz0iaHR0cDovL3d3dy53My5vcmcvMjAwMC9zdmciIHhtbG5zOnhsaW5rPSJodHRwOi8vd3d3LnczLm9yZy8xOTk5L3hsaW5rIiBjb250ZW50U3R5bGVUeXBlPSJ0ZXh0L2NzcyIgaGVpZ2h0PSIzNDZweCIgcHJlc2VydmVBc3BlY3RSYXRpbz0ibm9uZSIgc3R5bGU9IndpZHRoOjM3NXB4O2hlaWdodDozNDZweDtiYWNrZ3JvdW5kOiNGRkZGRkY7IiB2ZXJzaW9uPSIxLjEiIHZpZXdCb3g9IjAgMCAzNzUgMzQ2IiB3aWR0aD0iMzc1cHgiIHpvb21BbmRQYW49Im1hZ25pZnkiPjxkZWZzLz48Zz48cmVjdCBmaWxsPSIjRkZGRkZGIiBoZWlnaHQ9IjEzOS41NzAzIiBzdHlsZT0ic3Ryb2tlOiMxODE4MTg7c3Ryb2tlLXdpZHRoOjEuMDsiIHdpZHRoPSIxMCIgeD0iMTI1LjUiIHk9IjEwOS44OTg0Ii8+PHJlY3QgZmlsbD0iI0ZGRkZGRiIgaGVpZ2h0PSI4My43NDIyIiBzdHlsZT0ic3Ryb2tlOiMxODE4MTg7c3Ryb2tlLXdpZHRoOjEuMDsiIHdpZHRoPSIxMCIgeD0iMjQ0IiB5PSIxMzcuODEyNSIvPjxyZWN0IGZpbGw9IiNGRkZGRkYiIGhlaWdodD0iMjcuOTE0MSIgc3R5bGU9InN0cm9rZTojMTgxODE4O3N0cm9rZS13aWR0aDoxLjA7IiB3aWR0aD0iMTAiIHg9IjM1NCIgeT0iMTY1LjcyNjYiLz48bGluZSBzdHlsZT0ic3Ryb2tlOiMxODE4MTg7c3Ryb2tlLXdpZHRoOjAuNTtzdHJva2UtZGFzaGFycmF5OjUuMCw1LjA7IiB4MT0iMjUiIHgyPSIyNSIgeTE9Ijc5Ljk4NDQiIHkyPSIyNjcuNDY4OCIvPjxsaW5lIHN0eWxlPSJzdHJva2U6IzE4MTgxODtzdHJva2Utd2lkdGg6MC41O3N0cm9rZS1kYXNoYXJyYXk6NS4wLDUuMDsiIHgxPSIxMzAiIHgyPSIxMzAiIHkxPSI3OS45ODQ0IiB5Mj0iMjY3LjQ2ODgiLz48bGluZSBzdHlsZT0ic3Ryb2tlOiMxODE4MTg7c3Ryb2tlLXdpZHRoOjAuNTtzdHJva2UtZGFzaGFycmF5OjUuMCw1LjA7IiB4MT0iMjQ5IiB4Mj0iMjQ5IiB5MT0iNzkuOTg0NCIgeTI9IjI2Ny40Njg4Ii8+PGxpbmUgc3R5bGU9InN0cm9rZTojMTgxODE4O3N0cm9rZS13aWR0aDowLjU7c3Ryb2tlLWRhc2hhcnJheTo1LjAsNS4wOyIgeDE9IjM1OC41IiB4Mj0iMzU4LjUiIHkxPSI3OS45ODQ0IiB5Mj0iMjY3LjQ2ODgiLz48dGV4dCBmaWxsPSIjMDAwMDAwIiBmb250LWZhbWlseT0ic2Fucy1zZXJpZiIgZm9udC1zaXplPSIxNCIgbGVuZ3RoQWRqdXN0PSJzcGFjaW5nIiB0ZXh0TGVuZ3RoPSIzNSIgeD0iNSIgeT0iNzguMjM0NCI+QWN0b3I8L3RleHQ+PGVsbGlwc2UgY3g9IjI1LjUiIGN5PSIxMy41IiBmaWxsPSIjRTJFMkYwIiByeD0iOCIgcnk9IjgiIHN0eWxlPSJzdHJva2U6IzE4MTgxODtzdHJva2Utd2lkdGg6MC41OyIvPjxwYXRoIGQ9Ik0yNS41LDIxLjUgTDI1LjUsNDguNSBNMTIuNSwyOS41IEwzOC41LDI5LjUgTTI1LjUsNDguNSBMMTIuNSw2My41IE0yNS41LDQ4LjUgTDM4LjUsNjMuNSAiIGZpbGw9Im5vbmUiIHN0eWxlPSJzdHJva2U6IzE4MTgxODtzdHJva2Utd2lkdGg6MC41OyIvPjx0ZXh0IGZpbGw9IiMwMDAwMDAiIGZvbnQtZmFtaWx5PSJzYW5zLXNlcmlmIiBmb250LXNpemU9IjE0IiBsZW5ndGhBZGp1c3Q9InNwYWNpbmciIHRleHRMZW5ndGg9IjM1IiB4PSI1IiB5PSIyNzkuNzAzMSI+QWN0b3I8L3RleHQ+PGVsbGlwc2UgY3g9IjI1LjUiIGN5PSIyODkuOTUzMSIgZmlsbD0iI0UyRTJGMCIgcng9IjgiIHJ5PSI4IiBzdHlsZT0ic3Ryb2tlOiMxODE4MTg7c3Ryb2tlLXdpZHRoOjAuNTsiLz48cGF0aCBkPSJNMjUuNSwyOTcuOTUzMSBMMjUuNSwzMjQuOTUzMSBNMTIuNSwzMDUuOTUzMSBMMzguNSwzMDUuOTUzMSBNMjUuNSwzMjQuOTUzMSBMMTIuNSwzMzkuOTUzMSBNMjUuNSwzMjQuOTUzMSBMMzguNSwzMzkuOTUzMSAiIGZpbGw9Im5vbmUiIHN0eWxlPSJzdHJva2U6IzE4MTgxODtzdHJva2Utd2lkdGg6MC41OyIvPjxyZWN0IGZpbGw9IiNFMkUyRjAiIGhlaWdodD0iMjguOTg0NCIgcng9IjIuNSIgcnk9IjIuNSIgc3R5bGU9InN0cm9rZTojMTgxODE4O3N0cm9rZS13aWR0aDowLjU7IiB3aWR0aD0iMTE5IiB4PSI3MSIgeT0iNTAiLz48dGV4dCBmaWxsPSIjMDAwMDAwIiBmb250LWZhbWlseT0ic2Fucy1zZXJpZiIgZm9udC1zaXplPSIxNCIgbGVuZ3RoQWRqdXN0PSJzcGFjaW5nIiB0ZXh0TGVuZ3RoPSIxMDUiIHg9Ijc4IiB5PSI3MC4yMzQ0Ij5Vc2Vyc0NvbnRyb2xsZXI8L3RleHQ+PHJlY3QgZmlsbD0iI0UyRTJGMCIgaGVpZ2h0PSIyOC45ODQ0IiByeD0iMi41IiByeT0iMi41IiBzdHlsZT0ic3Ryb2tlOiMxODE4MTg7c3Ryb2tlLXdpZHRoOjAuNTsiIHdpZHRoPSIxMTkiIHg9IjcxIiB5PSIyNjYuNDY4OCIvPjx0ZXh0IGZpbGw9IiMwMDAwMDAiIGZvbnQtZmFtaWx5PSJzYW5zLXNlcmlmIiBmb250LXNpemU9IjE0IiBsZW5ndGhBZGp1c3Q9InNwYWNpbmciIHRleHRMZW5ndGg9IjEwNSIgeD0iNzgiIHk9IjI4Ni43MDMxIj5Vc2Vyc0NvbnRyb2xsZXI8L3RleHQ+PHJlY3QgZmlsbD0iI0UyRTJGMCIgaGVpZ2h0PSIyOC45ODQ0IiByeD0iMi41IiByeT0iMi41IiBzdHlsZT0ic3Ryb2tlOiMxODE4MTg7c3Ryb2tlLXdpZHRoOjAuNTsiIHdpZHRoPSI5OCIgeD0iMjAwIiB5PSI1MCIvPjx0ZXh0IGZpbGw9IiMwMDAwMDAiIGZvbnQtZmFtaWx5PSJzYW5zLXNlcmlmIiBmb250LXNpemU9IjE0IiBsZW5ndGhBZGp1c3Q9InNwYWNpbmciIHRleHRMZW5ndGg9Ijg0IiB4PSIyMDciIHk9IjcwLjIzNDQiPlVzZXJzU2VydmljZTwvdGV4dD48cmVjdCBmaWxsPSIjRTJFMkYwIiBoZWlnaHQ9IjI4Ljk4NDQiIHJ4PSIyLjUiIHJ5PSIyLjUiIHN0eWxlPSJzdHJva2U6IzE4MTgxODtzdHJva2Utd2lkdGg6MC41OyIgd2lkdGg9Ijk4IiB4PSIyMDAiIHk9IjI2Ni40Njg4Ii8+PHRleHQgZmlsbD0iIzAwMDAwMCIgZm9udC1mYW1pbHk9InNhbnMtc2VyaWYiIGZvbnQtc2l6ZT0iMTQiIGxlbmd0aEFkanVzdD0ic3BhY2luZyIgdGV4dExlbmd0aD0iODQiIHg9IjIwNyIgeT0iMjg2LjcwMzEiPlVzZXJzU2VydmljZTwvdGV4dD48cmVjdCBmaWxsPSIjRTJFMkYwIiBoZWlnaHQ9IjI4Ljk4NDQiIHJ4PSIyLjUiIHJ5PSIyLjUiIHN0eWxlPSJzdHJva2U6IzE4MTgxODtzdHJva2Utd2lkdGg6MC41OyIgd2lkdGg9IjIxIiB4PSIzNDguNSIgeT0iNTAiLz48dGV4dCBmaWxsPSIjMDAwMDAwIiBmb250LWZhbWlseT0ic2Fucy1zZXJpZiIgZm9udC1zaXplPSIxNCIgbGVuZ3RoQWRqdXN0PSJzcGFjaW5nIiB0ZXh0TGVuZ3RoPSI3IiB4PSIzNTUuNSIgeT0iNzAuMjM0NCI+UjwvdGV4dD48cmVjdCBmaWxsPSIjRTJFMkYwIiBoZWlnaHQ9IjI4Ljk4NDQiIHJ4PSIyLjUiIHJ5PSIyLjUiIHN0eWxlPSJzdHJva2U6IzE4MTgxODtzdHJva2Utd2lkdGg6MC41OyIgd2lkdGg9IjIxIiB4PSIzNDguNSIgeT0iMjY2LjQ2ODgiLz48dGV4dCBmaWxsPSIjMDAwMDAwIiBmb250LWZhbWlseT0ic2Fucy1zZXJpZiIgZm9udC1zaXplPSIxNCIgbGVuZ3RoQWRqdXN0PSJzcGFjaW5nIiB0ZXh0TGVuZ3RoPSI3IiB4PSIzNTUuNSIgeT0iMjg2LjcwMzEiPlI8L3RleHQ+PHJlY3QgZmlsbD0iI0ZGRkZGRiIgaGVpZ2h0PSIxMzkuNTcwMyIgc3R5bGU9InN0cm9rZTojMTgxODE4O3N0cm9rZS13aWR0aDoxLjA7IiB3aWR0aD0iMTAiIHg9IjEyNS41IiB5PSIxMDkuODk4NCIvPjxyZWN0IGZpbGw9IiNGRkZGRkYiIGhlaWdodD0iODMuNzQyMiIgc3R5bGU9InN0cm9rZTojMTgxODE4O3N0cm9rZS13aWR0aDoxLjA7IiB3aWR0aD0iMTAiIHg9IjI0NCIgeT0iMTM3LjgxMjUiLz48cmVjdCBmaWxsPSIjRkZGRkZGIiBoZWlnaHQ9IjI3LjkxNDEiIHN0eWxlPSJzdHJva2U6IzE4MTgxODtzdHJva2Utd2lkdGg6MS4wOyIgd2lkdGg9IjEwIiB4PSIzNTQiIHk9IjE2NS43MjY2Ii8+PHBvbHlnb24gZmlsbD0iIzE4MTgxOCIgcG9pbnRzPSIxMTMuNSwxMDUuODk4NCwxMjMuNSwxMDkuODk4NCwxMTMuNSwxMTMuODk4NCwxMTcuNSwxMDkuODk4NCIgc3R5bGU9InN0cm9rZTojMTgxODE4O3N0cm9rZS13aWR0aDoxLjA7Ii8+PGxpbmUgc3R5bGU9InN0cm9rZTojMTgxODE4O3N0cm9rZS13aWR0aDoxLjA7IiB4MT0iMjUuNSIgeDI9IjExOS41IiB5MT0iMTA5Ljg5ODQiIHkyPSIxMDkuODk4NCIvPjx0ZXh0IGZpbGw9IiMwMDAwMDAiIGZvbnQtZmFtaWx5PSJzYW5zLXNlcmlmIiBmb250LXNpemU9IjEzIiBsZW5ndGhBZGp1c3Q9InNwYWNpbmciIHRleHRMZW5ndGg9IjgxIiB4PSIzMi41IiB5PSIxMDYuMjczNCI+Z2V0UGFnZUluZm9zPC90ZXh0Pjxwb2x5Z29uIGZpbGw9IiMxODE4MTgiIHBvaW50cz0iMjMyLDEzMy44MTI1LDI0MiwxMzcuODEyNSwyMzIsMTQxLjgxMjUsMjM2LDEzNy44MTI1IiBzdHlsZT0ic3Ryb2tlOiMxODE4MTg7c3Ryb2tlLXdpZHRoOjEuMDsiLz48bGluZSBzdHlsZT0ic3Ryb2tlOiMxODE4MTg7c3Ryb2tlLXdpZHRoOjEuMDsiIHgxPSIxMzUuNSIgeDI9IjIzOCIgeTE9IjEzNy44MTI1IiB5Mj0iMTM3LjgxMjUiLz48dGV4dCBmaWxsPSIjMDAwMDAwIiBmb250LWZhbWlseT0ic2Fucy1zZXJpZiIgZm9udC1zaXplPSIxMyIgbGVuZ3RoQWRqdXN0PSJzcGFjaW5nIiB0ZXh0TGVuZ3RoPSI3NCIgeD0iMTQyLjUiIHk9IjEzNC4xODc1Ij5nZXRQYWdlSW5mbzwvdGV4dD48cG9seWdvbiBmaWxsPSIjMTgxODE4IiBwb2ludHM9IjM0MiwxNjEuNzI2NiwzNTIsMTY1LjcyNjYsMzQyLDE2OS43MjY2LDM0NiwxNjUuNzI2NiIgc3R5bGU9InN0cm9rZTojMTgxODE4O3N0cm9rZS13aWR0aDoxLjA7Ii8+PGxpbmUgc3R5bGU9InN0cm9rZTojMTgxODE4O3N0cm9rZS13aWR0aDoxLjA7IiB4MT0iMjU0IiB4Mj0iMzQ4IiB5MT0iMTY1LjcyNjYiIHkyPSIxNjUuNzI2NiIvPjx0ZXh0IGZpbGw9IiMwMDAwMDAiIGZvbnQtZmFtaWx5PSJzYW5zLXNlcmlmIiBmb250LXNpemU9IjEzIiBsZW5ndGhBZGp1c3Q9InNwYWNpbmciIHRleHRMZW5ndGg9Ijc0IiB4PSIyNjEiIHk9IjE2Mi4xMDE2Ij5nZXRQYWdlSW5mbzwvdGV4dD48cG9seWdvbiBmaWxsPSIjMTgxODE4IiBwb2ludHM9IjI2NSwxODkuNjQwNiwyNTUsMTkzLjY0MDYsMjY1LDE5Ny42NDA2LDI2MSwxOTMuNjQwNiIgc3R5bGU9InN0cm9rZTojMTgxODE4O3N0cm9rZS13aWR0aDoxLjA7Ii8+PGxpbmUgc3R5bGU9InN0cm9rZTojMTgxODE4O3N0cm9rZS13aWR0aDoxLjA7c3Ryb2tlLWRhc2hhcnJheToyLjAsMi4wOyIgeDE9IjI1OSIgeDI9IjM1OCIgeTE9IjE5My42NDA2IiB5Mj0iMTkzLjY0MDYiLz48dGV4dCBmaWxsPSIjMDAwMDAwIiBmb250LWZhbWlseT0ic2Fucy1zZXJpZiIgZm9udC1zaXplPSIxMyIgbGVuZ3RoQWRqdXN0PSJzcGFjaW5nIiB0ZXh0TGVuZ3RoPSI3NiIgeD0iMjcxIiB5PSIxOTAuMDE1NiI+c3VjY2Vzc0RhdGE8L3RleHQ+PHBvbHlnb24gZmlsbD0iIzE4MTgxOCIgcG9pbnRzPSIxNDYuNSwyMTcuNTU0NywxMzYuNSwyMjEuNTU0NywxNDYuNSwyMjUuNTU0NywxNDIuNSwyMjEuNTU0NyIgc3R5bGU9InN0cm9rZTojMTgxODE4O3N0cm9rZS13aWR0aDoxLjA7Ii8+PGxpbmUgc3R5bGU9InN0cm9rZTojMTgxODE4O3N0cm9rZS13aWR0aDoxLjA7c3Ryb2tlLWRhc2hhcnJheToyLjAsMi4wOyIgeDE9IjE0MC41IiB4Mj0iMjQ4IiB5MT0iMjIxLjU1NDciIHkyPSIyMjEuNTU0NyIvPjx0ZXh0IGZpbGw9IiMwMDAwMDAiIGZvbnQtZmFtaWx5PSJzYW5zLXNlcmlmIiBmb250LXNpemU9IjEzIiBsZW5ndGhBZGp1c3Q9InNwYWNpbmciIHRleHRMZW5ndGg9Ijc2IiB4PSIxNTIuNSIgeT0iMjE3LjkyOTciPnN1Y2Nlc3NEYXRhPC90ZXh0Pjxwb2x5Z29uIGZpbGw9IiMxODE4MTgiIHBvaW50cz0iMzYuNSwyNDUuNDY4OCwyNi41LDI0OS40Njg4LDM2LjUsMjUzLjQ2ODgsMzIuNSwyNDkuNDY4OCIgc3R5bGU9InN0cm9rZTojMTgxODE4O3N0cm9rZS13aWR0aDoxLjA7Ii8+PGxpbmUgc3R5bGU9InN0cm9rZTojMTgxODE4O3N0cm9rZS13aWR0aDoxLjA7c3Ryb2tlLWRhc2hhcnJheToyLjAsMi4wOyIgeDE9IjMwLjUiIHgyPSIxMjkuNSIgeTE9IjI0OS40Njg4IiB5Mj0iMjQ5LjQ2ODgiLz48dGV4dCBmaWxsPSIjMDAwMDAwIiBmb250LWZhbWlseT0ic2Fucy1zZXJpZiIgZm9udC1zaXplPSIxMyIgbGVuZ3RoQWRqdXN0PSJzcGFjaW5nIiB0ZXh0TGVuZ3RoPSI3NiIgeD0iNDIuNSIgeT0iMjQ1Ljg0MzgiPnN1Y2Nlc3NEYXRhPC90ZXh0PjwhLS1TUkM9W1ZQMG4zaThtMzRMdGR5OE53MEtPYTEwaVIyWTgwclo2TDk2Z2Y4ZkRwcXlCTDNIOW8tQjVWa19SOWhRT3kzMUx3MmNQUHp6SkNCb2Y5M3Q2TzJic2RRcHFoZjg2cHY4cjdDM1JYQ3MtNUUwRU14NEJqTjhFWndYMFI3dVdhb2dldjZSTERvX3Q1OWZ2Zm1tTzFNd0JTazJtZ0hGcW9Jb2c5cEEya29vY1NfN2diSGppbFRfb25qN3FVVG5fX2VVeTAwMDBdLS0+PC9nPjwvc3ZnPg==;" vertex="1" parent="1">
            <mxGeometry x="70" y="1060" width="375" height="346" as="geometry" />
          </mxCell>
        </UserObject>
        <UserObject label="" plantUmlData="{&#xa;  &quot;data&quot;: &quot;@startuml\n\nactor Actor\nparticipant UsersController\nparticipant UsersService\nparticipant IDUtils\nparticipant BaseService\nparticipant R\n\nActor -&gt; UsersController : addInfo\nactivate UsersController\n\nUsersController -&gt; UsersService : getUserByUserName\nactivate UsersService\nUsersService --&gt; UsersController : \ndeactivate UsersService\n\nUsersController -&gt; IDUtils : makeIDByCurrent\nactivate IDUtils\nIDUtils --&gt; UsersController : \ndeactivate IDUtils\n\nUsersController -&gt; BaseService : add\nactivate BaseService\nBaseService --&gt; UsersController : success\ndeactivate BaseService\n\nUsersController -&gt; R : success\nactivate R\nR --&gt; UsersController : \ndeactivate R\n\nUsersController -&gt; R : warn\nactivate R\nR --&gt; UsersController : \ndeactivate R\n\nUsersController --&gt; Actor : \ndeactivate UsersController\n\n@enduml&quot;,&#xa;  &quot;format&quot;: &quot;svg&quot;&#xa;}" id="WzdI1a4IJHju0GnlryfJ-7">
          <mxCell style="shape=image;noLabel=1;verticalAlign=top;aspect=fixed;imageAspect=0;image=data:image/svg+xml,PD94bWwgdmVyc2lvbj0iMS4wIiBlbmNvZGluZz0idXMtYXNjaWkiIHN0YW5kYWxvbmU9Im5vIj8+PHN2ZyB4bWxucz0iaHR0cDovL3d3dy53My5vcmcvMjAwMC9zdmciIHhtbG5zOnhsaW5rPSJodHRwOi8vd3d3LnczLm9yZy8xOTk5L3hsaW5rIiBjb250ZW50U3R5bGVUeXBlPSJ0ZXh0L2NzcyIgaGVpZ2h0PSI0NDRweCIgcHJlc2VydmVBc3BlY3RSYXRpbz0ibm9uZSIgc3R5bGU9IndpZHRoOjUyMXB4O2hlaWdodDo0NDRweDtiYWNrZ3JvdW5kOiNGRkZGRkY7IiB2ZXJzaW9uPSIxLjEiIHZpZXdCb3g9IjAgMCA1MjEgNDQ0IiB3aWR0aD0iNTIxcHgiIHpvb21BbmRQYW49Im1hZ25pZnkiPjxkZWZzLz48Zz48cmVjdCBmaWxsPSIjRkZGRkZGIiBoZWlnaHQ9IjIzNy40ODQ0IiBzdHlsZT0ic3Ryb2tlOiMxODE4MTg7c3Ryb2tlLXdpZHRoOjEuMDsiIHdpZHRoPSIxMCIgeD0iMTEwLjUiIHk9IjEwOS44OTg0Ii8+PHJlY3QgZmlsbD0iI0ZGRkZGRiIgaGVpZ2h0PSIxNCIgc3R5bGU9InN0cm9rZTojMTgxODE4O3N0cm9rZS13aWR0aDoxLjA7IiB3aWR0aD0iMTAiIHg9IjI1Ni41IiB5PSIxMzcuODEyNSIvPjxyZWN0IGZpbGw9IiNGRkZGRkYiIGhlaWdodD0iMTQiIHN0eWxlPSJzdHJva2U6IzE4MTgxODtzdHJva2Utd2lkdGg6MS4wOyIgd2lkdGg9IjEwIiB4PSIzNDciIHk9IjE3OS43MjY2Ii8+PHJlY3QgZmlsbD0iI0ZGRkZGRiIgaGVpZ2h0PSIyNy45MTQxIiBzdHlsZT0ic3Ryb2tlOiMxODE4MTg7c3Ryb2tlLXdpZHRoOjEuMDsiIHdpZHRoPSIxMCIgeD0iNDM0IiB5PSIyMjEuNjQwNiIvPjxyZWN0IGZpbGw9IiNGRkZGRkYiIGhlaWdodD0iMTQiIHN0eWxlPSJzdHJva2U6IzE4MTgxODtzdHJva2Utd2lkdGg6MS4wOyIgd2lkdGg9IjEwIiB4PSI1MDAiIHk9IjI3Ny40Njg4Ii8+PHJlY3QgZmlsbD0iI0ZGRkZGRiIgaGVpZ2h0PSIxNCIgc3R5bGU9InN0cm9rZTojMTgxODE4O3N0cm9rZS13aWR0aDoxLjA7IiB3aWR0aD0iMTAiIHg9IjUwMCIgeT0iMzE5LjM4MjgiLz48bGluZSBzdHlsZT0ic3Ryb2tlOiMxODE4MTg7c3Ryb2tlLXdpZHRoOjAuNTtzdHJva2UtZGFzaGFycmF5OjUuMCw1LjA7IiB4MT0iMjUiIHgyPSIyNSIgeTE9Ijc5Ljk4NDQiIHkyPSIzNjUuMzgyOCIvPjxsaW5lIHN0eWxlPSJzdHJva2U6IzE4MTgxODtzdHJva2Utd2lkdGg6MC41O3N0cm9rZS1kYXNoYXJyYXk6NS4wLDUuMDsiIHgxPSIxMTUiIHgyPSIxMTUiIHkxPSI3OS45ODQ0IiB5Mj0iMzY1LjM4MjgiLz48bGluZSBzdHlsZT0ic3Ryb2tlOiMxODE4MTg7c3Ryb2tlLXdpZHRoOjAuNTtzdHJva2UtZGFzaGFycmF5OjUuMCw1LjA7IiB4MT0iMjYxLjUiIHgyPSIyNjEuNSIgeTE9Ijc5Ljk4NDQiIHkyPSIzNjUuMzgyOCIvPjxsaW5lIHN0eWxlPSJzdHJva2U6IzE4MTgxODtzdHJva2Utd2lkdGg6MC41O3N0cm9rZS1kYXNoYXJyYXk6NS4wLDUuMDsiIHgxPSIzNTEuNSIgeDI9IjM1MS41IiB5MT0iNzkuOTg0NCIgeTI9IjM2NS4zODI4Ii8+PGxpbmUgc3R5bGU9InN0cm9rZTojMTgxODE4O3N0cm9rZS13aWR0aDowLjU7c3Ryb2tlLWRhc2hhcnJheTo1LjAsNS4wOyIgeDE9IjQzOC41IiB4Mj0iNDM4LjUiIHkxPSI3OS45ODQ0IiB5Mj0iMzY1LjM4MjgiLz48bGluZSBzdHlsZT0ic3Ryb2tlOiMxODE4MTg7c3Ryb2tlLXdpZHRoOjAuNTtzdHJva2UtZGFzaGFycmF5OjUuMCw1LjA7IiB4MT0iNTA0LjUiIHgyPSI1MDQuNSIgeTE9Ijc5Ljk4NDQiIHkyPSIzNjUuMzgyOCIvPjx0ZXh0IGZpbGw9IiMwMDAwMDAiIGZvbnQtZmFtaWx5PSJzYW5zLXNlcmlmIiBmb250LXNpemU9IjE0IiBsZW5ndGhBZGp1c3Q9InNwYWNpbmciIHRleHRMZW5ndGg9IjM1IiB4PSI1IiB5PSI3OC4yMzQ0Ij5BY3RvcjwvdGV4dD48ZWxsaXBzZSBjeD0iMjUuNSIgY3k9IjEzLjUiIGZpbGw9IiNFMkUyRjAiIHJ4PSI4IiByeT0iOCIgc3R5bGU9InN0cm9rZTojMTgxODE4O3N0cm9rZS13aWR0aDowLjU7Ii8+PHBhdGggZD0iTTI1LjUsMjEuNSBMMjUuNSw0OC41IE0xMi41LDI5LjUgTDM4LjUsMjkuNSBNMjUuNSw0OC41IEwxMi41LDYzLjUgTTI1LjUsNDguNSBMMzguNSw2My41ICIgZmlsbD0ibm9uZSIgc3R5bGU9InN0cm9rZTojMTgxODE4O3N0cm9rZS13aWR0aDowLjU7Ii8+PHRleHQgZmlsbD0iIzAwMDAwMCIgZm9udC1mYW1pbHk9InNhbnMtc2VyaWYiIGZvbnQtc2l6ZT0iMTQiIGxlbmd0aEFkanVzdD0ic3BhY2luZyIgdGV4dExlbmd0aD0iMzUiIHg9IjUiIHk9IjM3Ny42MTcyIj5BY3RvcjwvdGV4dD48ZWxsaXBzZSBjeD0iMjUuNSIgY3k9IjM4Ny44NjcyIiBmaWxsPSIjRTJFMkYwIiByeD0iOCIgcnk9IjgiIHN0eWxlPSJzdHJva2U6IzE4MTgxODtzdHJva2Utd2lkdGg6MC41OyIvPjxwYXRoIGQ9Ik0yNS41LDM5NS44NjcyIEwyNS41LDQyMi44NjcyIE0xMi41LDQwMy44NjcyIEwzOC41LDQwMy44NjcyIE0yNS41LDQyMi44NjcyIEwxMi41LDQzNy44NjcyIE0yNS41LDQyMi44NjcyIEwzOC41LDQzNy44NjcyICIgZmlsbD0ibm9uZSIgc3R5bGU9InN0cm9rZTojMTgxODE4O3N0cm9rZS13aWR0aDowLjU7Ii8+PHJlY3QgZmlsbD0iI0UyRTJGMCIgaGVpZ2h0PSIyOC45ODQ0IiByeD0iMi41IiByeT0iMi41IiBzdHlsZT0ic3Ryb2tlOiMxODE4MTg7c3Ryb2tlLXdpZHRoOjAuNTsiIHdpZHRoPSIxMTkiIHg9IjU2IiB5PSI1MCIvPjx0ZXh0IGZpbGw9IiMwMDAwMDAiIGZvbnQtZmFtaWx5PSJzYW5zLXNlcmlmIiBmb250LXNpemU9IjE0IiBsZW5ndGhBZGp1c3Q9InNwYWNpbmciIHRleHRMZW5ndGg9IjEwNSIgeD0iNjMiIHk9IjcwLjIzNDQiPlVzZXJzQ29udHJvbGxlcjwvdGV4dD48cmVjdCBmaWxsPSIjRTJFMkYwIiBoZWlnaHQ9IjI4Ljk4NDQiIHJ4PSIyLjUiIHJ5PSIyLjUiIHN0eWxlPSJzdHJva2U6IzE4MTgxODtzdHJva2Utd2lkdGg6MC41OyIgd2lkdGg9IjExOSIgeD0iNTYiIHk9IjM2NC4zODI4Ii8+PHRleHQgZmlsbD0iIzAwMDAwMCIgZm9udC1mYW1pbHk9InNhbnMtc2VyaWYiIGZvbnQtc2l6ZT0iMTQiIGxlbmd0aEFkanVzdD0ic3BhY2luZyIgdGV4dExlbmd0aD0iMTA1IiB4PSI2MyIgeT0iMzg0LjYxNzIiPlVzZXJzQ29udHJvbGxlcjwvdGV4dD48cmVjdCBmaWxsPSIjRTJFMkYwIiBoZWlnaHQ9IjI4Ljk4NDQiIHJ4PSIyLjUiIHJ5PSIyLjUiIHN0eWxlPSJzdHJva2U6IzE4MTgxODtzdHJva2Utd2lkdGg6MC41OyIgd2lkdGg9Ijk4IiB4PSIyMTIuNSIgeT0iNTAiLz48dGV4dCBmaWxsPSIjMDAwMDAwIiBmb250LWZhbWlseT0ic2Fucy1zZXJpZiIgZm9udC1zaXplPSIxNCIgbGVuZ3RoQWRqdXN0PSJzcGFjaW5nIiB0ZXh0TGVuZ3RoPSI4NCIgeD0iMjE5LjUiIHk9IjcwLjIzNDQiPlVzZXJzU2VydmljZTwvdGV4dD48cmVjdCBmaWxsPSIjRTJFMkYwIiBoZWlnaHQ9IjI4Ljk4NDQiIHJ4PSIyLjUiIHJ5PSIyLjUiIHN0eWxlPSJzdHJva2U6IzE4MTgxODtzdHJva2Utd2lkdGg6MC41OyIgd2lkdGg9Ijk4IiB4PSIyMTIuNSIgeT0iMzY0LjM4MjgiLz48dGV4dCBmaWxsPSIjMDAwMDAwIiBmb250LWZhbWlseT0ic2Fucy1zZXJpZiIgZm9udC1zaXplPSIxNCIgbGVuZ3RoQWRqdXN0PSJzcGFjaW5nIiB0ZXh0TGVuZ3RoPSI4NCIgeD0iMjE5LjUiIHk9IjM4NC42MTcyIj5Vc2Vyc1NlcnZpY2U8L3RleHQ+PHJlY3QgZmlsbD0iI0UyRTJGMCIgaGVpZ2h0PSIyOC45ODQ0IiByeD0iMi41IiByeT0iMi41IiBzdHlsZT0ic3Ryb2tlOiMxODE4MTg7c3Ryb2tlLXdpZHRoOjAuNTsiIHdpZHRoPSI2MyIgeD0iMzIwLjUiIHk9IjUwIi8+PHRleHQgZmlsbD0iIzAwMDAwMCIgZm9udC1mYW1pbHk9InNhbnMtc2VyaWYiIGZvbnQtc2l6ZT0iMTQiIGxlbmd0aEFkanVzdD0ic3BhY2luZyIgdGV4dExlbmd0aD0iNDkiIHg9IjMyNy41IiB5PSI3MC4yMzQ0Ij5JRFV0aWxzPC90ZXh0PjxyZWN0IGZpbGw9IiNFMkUyRjAiIGhlaWdodD0iMjguOTg0NCIgcng9IjIuNSIgcnk9IjIuNSIgc3R5bGU9InN0cm9rZTojMTgxODE4O3N0cm9rZS13aWR0aDowLjU7IiB3aWR0aD0iNjMiIHg9IjMyMC41IiB5PSIzNjQuMzgyOCIvPjx0ZXh0IGZpbGw9IiMwMDAwMDAiIGZvbnQtZmFtaWx5PSJzYW5zLXNlcmlmIiBmb250LXNpemU9IjE0IiBsZW5ndGhBZGp1c3Q9InNwYWNpbmciIHRleHRMZW5ndGg9IjQ5IiB4PSIzMjcuNSIgeT0iMzg0LjYxNzIiPklEVXRpbHM8L3RleHQ+PHJlY3QgZmlsbD0iI0UyRTJGMCIgaGVpZ2h0PSIyOC45ODQ0IiByeD0iMi41IiByeT0iMi41IiBzdHlsZT0ic3Ryb2tlOiMxODE4MTg7c3Ryb2tlLXdpZHRoOjAuNTsiIHdpZHRoPSI5MSIgeD0iMzkzLjUiIHk9IjUwIi8+PHRleHQgZmlsbD0iIzAwMDAwMCIgZm9udC1mYW1pbHk9InNhbnMtc2VyaWYiIGZvbnQtc2l6ZT0iMTQiIGxlbmd0aEFkanVzdD0ic3BhY2luZyIgdGV4dExlbmd0aD0iNzciIHg9IjQwMC41IiB5PSI3MC4yMzQ0Ij5CYXNlU2VydmljZTwvdGV4dD48cmVjdCBmaWxsPSIjRTJFMkYwIiBoZWlnaHQ9IjI4Ljk4NDQiIHJ4PSIyLjUiIHJ5PSIyLjUiIHN0eWxlPSJzdHJva2U6IzE4MTgxODtzdHJva2Utd2lkdGg6MC41OyIgd2lkdGg9IjkxIiB4PSIzOTMuNSIgeT0iMzY0LjM4MjgiLz48dGV4dCBmaWxsPSIjMDAwMDAwIiBmb250LWZhbWlseT0ic2Fucy1zZXJpZiIgZm9udC1zaXplPSIxNCIgbGVuZ3RoQWRqdXN0PSJzcGFjaW5nIiB0ZXh0TGVuZ3RoPSI3NyIgeD0iNDAwLjUiIHk9IjM4NC42MTcyIj5CYXNlU2VydmljZTwvdGV4dD48cmVjdCBmaWxsPSIjRTJFMkYwIiBoZWlnaHQ9IjI4Ljk4NDQiIHJ4PSIyLjUiIHJ5PSIyLjUiIHN0eWxlPSJzdHJva2U6IzE4MTgxODtzdHJva2Utd2lkdGg6MC41OyIgd2lkdGg9IjIxIiB4PSI0OTQuNSIgeT0iNTAiLz48dGV4dCBmaWxsPSIjMDAwMDAwIiBmb250LWZhbWlseT0ic2Fucy1zZXJpZiIgZm9udC1zaXplPSIxNCIgbGVuZ3RoQWRqdXN0PSJzcGFjaW5nIiB0ZXh0TGVuZ3RoPSI3IiB4PSI1MDEuNSIgeT0iNzAuMjM0NCI+UjwvdGV4dD48cmVjdCBmaWxsPSIjRTJFMkYwIiBoZWlnaHQ9IjI4Ljk4NDQiIHJ4PSIyLjUiIHJ5PSIyLjUiIHN0eWxlPSJzdHJva2U6IzE4MTgxODtzdHJva2Utd2lkdGg6MC41OyIgd2lkdGg9IjIxIiB4PSI0OTQuNSIgeT0iMzY0LjM4MjgiLz48dGV4dCBmaWxsPSIjMDAwMDAwIiBmb250LWZhbWlseT0ic2Fucy1zZXJpZiIgZm9udC1zaXplPSIxNCIgbGVuZ3RoQWRqdXN0PSJzcGFjaW5nIiB0ZXh0TGVuZ3RoPSI3IiB4PSI1MDEuNSIgeT0iMzg0LjYxNzIiPlI8L3RleHQ+PHJlY3QgZmlsbD0iI0ZGRkZGRiIgaGVpZ2h0PSIyMzcuNDg0NCIgc3R5bGU9InN0cm9rZTojMTgxODE4O3N0cm9rZS13aWR0aDoxLjA7IiB3aWR0aD0iMTAiIHg9IjExMC41IiB5PSIxMDkuODk4NCIvPjxyZWN0IGZpbGw9IiNGRkZGRkYiIGhlaWdodD0iMTQiIHN0eWxlPSJzdHJva2U6IzE4MTgxODtzdHJva2Utd2lkdGg6MS4wOyIgd2lkdGg9IjEwIiB4PSIyNTYuNSIgeT0iMTM3LjgxMjUiLz48cmVjdCBmaWxsPSIjRkZGRkZGIiBoZWlnaHQ9IjE0IiBzdHlsZT0ic3Ryb2tlOiMxODE4MTg7c3Ryb2tlLXdpZHRoOjEuMDsiIHdpZHRoPSIxMCIgeD0iMzQ3IiB5PSIxNzkuNzI2NiIvPjxyZWN0IGZpbGw9IiNGRkZGRkYiIGhlaWdodD0iMjcuOTE0MSIgc3R5bGU9InN0cm9rZTojMTgxODE4O3N0cm9rZS13aWR0aDoxLjA7IiB3aWR0aD0iMTAiIHg9IjQzNCIgeT0iMjIxLjY0MDYiLz48cmVjdCBmaWxsPSIjRkZGRkZGIiBoZWlnaHQ9IjE0IiBzdHlsZT0ic3Ryb2tlOiMxODE4MTg7c3Ryb2tlLXdpZHRoOjEuMDsiIHdpZHRoPSIxMCIgeD0iNTAwIiB5PSIyNzcuNDY4OCIvPjxyZWN0IGZpbGw9IiNGRkZGRkYiIGhlaWdodD0iMTQiIHN0eWxlPSJzdHJva2U6IzE4MTgxODtzdHJva2Utd2lkdGg6MS4wOyIgd2lkdGg9IjEwIiB4PSI1MDAiIHk9IjMxOS4zODI4Ii8+PHBvbHlnb24gZmlsbD0iIzE4MTgxOCIgcG9pbnRzPSI5OC41LDEwNS44OTg0LDEwOC41LDEwOS44OTg0LDk4LjUsMTEzLjg5ODQsMTAyLjUsMTA5Ljg5ODQiIHN0eWxlPSJzdHJva2U6IzE4MTgxODtzdHJva2Utd2lkdGg6MS4wOyIvPjxsaW5lIHN0eWxlPSJzdHJva2U6IzE4MTgxODtzdHJva2Utd2lkdGg6MS4wOyIgeDE9IjI1LjUiIHgyPSIxMDQuNSIgeTE9IjEwOS44OTg0IiB5Mj0iMTA5Ljg5ODQiLz48dGV4dCBmaWxsPSIjMDAwMDAwIiBmb250LWZhbWlseT0ic2Fucy1zZXJpZiIgZm9udC1zaXplPSIxMyIgbGVuZ3RoQWRqdXN0PSJzcGFjaW5nIiB0ZXh0TGVuZ3RoPSI0NyIgeD0iMzIuNSIgeT0iMTA2LjI3MzQiPmFkZEluZm88L3RleHQ+PHBvbHlnb24gZmlsbD0iIzE4MTgxOCIgcG9pbnRzPSIyNDQuNSwxMzMuODEyNSwyNTQuNSwxMzcuODEyNSwyNDQuNSwxNDEuODEyNSwyNDguNSwxMzcuODEyNSIgc3R5bGU9InN0cm9rZTojMTgxODE4O3N0cm9rZS13aWR0aDoxLjA7Ii8+PGxpbmUgc3R5bGU9InN0cm9rZTojMTgxODE4O3N0cm9rZS13aWR0aDoxLjA7IiB4MT0iMTIwLjUiIHgyPSIyNTAuNSIgeTE9IjEzNy44MTI1IiB5Mj0iMTM3LjgxMjUiLz48dGV4dCBmaWxsPSIjMDAwMDAwIiBmb250LWZhbWlseT0ic2Fucy1zZXJpZiIgZm9udC1zaXplPSIxMyIgbGVuZ3RoQWRqdXN0PSJzcGFjaW5nIiB0ZXh0TGVuZ3RoPSIxMTciIHg9IjEyNy41IiB5PSIxMzQuMTg3NSI+Z2V0VXNlckJ5VXNlck5hbWU8L3RleHQ+PHBvbHlnb24gZmlsbD0iIzE4MTgxOCIgcG9pbnRzPSIxMzEuNSwxNDcuODEyNSwxMjEuNSwxNTEuODEyNSwxMzEuNSwxNTUuODEyNSwxMjcuNSwxNTEuODEyNSIgc3R5bGU9InN0cm9rZTojMTgxODE4O3N0cm9rZS13aWR0aDoxLjA7Ii8+PGxpbmUgc3R5bGU9InN0cm9rZTojMTgxODE4O3N0cm9rZS13aWR0aDoxLjA7c3Ryb2tlLWRhc2hhcnJheToyLjAsMi4wOyIgeDE9IjEyNS41IiB4Mj0iMjYwLjUiIHkxPSIxNTEuODEyNSIgeTI9IjE1MS44MTI1Ii8+PHBvbHlnb24gZmlsbD0iIzE4MTgxOCIgcG9pbnRzPSIzMzUsMTc1LjcyNjYsMzQ1LDE3OS43MjY2LDMzNSwxODMuNzI2NiwzMzksMTc5LjcyNjYiIHN0eWxlPSJzdHJva2U6IzE4MTgxODtzdHJva2Utd2lkdGg6MS4wOyIvPjxsaW5lIHN0eWxlPSJzdHJva2U6IzE4MTgxODtzdHJva2Utd2lkdGg6MS4wOyIgeDE9IjEyMC41IiB4Mj0iMzQxIiB5MT0iMTc5LjcyNjYiIHkyPSIxNzkuNzI2NiIvPjx0ZXh0IGZpbGw9IiMwMDAwMDAiIGZvbnQtZmFtaWx5PSJzYW5zLXNlcmlmIiBmb250LXNpemU9IjEzIiBsZW5ndGhBZGp1c3Q9InNwYWNpbmciIHRleHRMZW5ndGg9IjEwMiIgeD0iMTI3LjUiIHk9IjE3Ni4xMDE2Ij5tYWtlSURCeUN1cnJlbnQ8L3RleHQ+PHBvbHlnb24gZmlsbD0iIzE4MTgxOCIgcG9pbnRzPSIxMzEuNSwxODkuNzI2NiwxMjEuNSwxOTMuNzI2NiwxMzEuNSwxOTcuNzI2NiwxMjcuNSwxOTMuNzI2NiIgc3R5bGU9InN0cm9rZTojMTgxODE4O3N0cm9rZS13aWR0aDoxLjA7Ii8+PGxpbmUgc3R5bGU9InN0cm9rZTojMTgxODE4O3N0cm9rZS13aWR0aDoxLjA7c3Ryb2tlLWRhc2hhcnJheToyLjAsMi4wOyIgeDE9IjEyNS41IiB4Mj0iMzUxIiB5MT0iMTkzLjcyNjYiIHkyPSIxOTMuNzI2NiIvPjxwb2x5Z29uIGZpbGw9IiMxODE4MTgiIHBvaW50cz0iNDIyLDIxNy42NDA2LDQzMiwyMjEuNjQwNiw0MjIsMjI1LjY0MDYsNDI2LDIyMS42NDA2IiBzdHlsZT0ic3Ryb2tlOiMxODE4MTg7c3Ryb2tlLXdpZHRoOjEuMDsiLz48bGluZSBzdHlsZT0ic3Ryb2tlOiMxODE4MTg7c3Ryb2tlLXdpZHRoOjEuMDsiIHgxPSIxMjAuNSIgeDI9IjQyOCIgeTE9IjIyMS42NDA2IiB5Mj0iMjIxLjY0MDYiLz48dGV4dCBmaWxsPSIjMDAwMDAwIiBmb250LWZhbWlseT0ic2Fucy1zZXJpZiIgZm9udC1zaXplPSIxMyIgbGVuZ3RoQWRqdXN0PSJzcGFjaW5nIiB0ZXh0TGVuZ3RoPSIyMSIgeD0iMTI3LjUiIHk9IjIxOC4wMTU2Ij5hZGQ8L3RleHQ+PHBvbHlnb24gZmlsbD0iIzE4MTgxOCIgcG9pbnRzPSIxMzEuNSwyNDUuNTU0NywxMjEuNSwyNDkuNTU0NywxMzEuNSwyNTMuNTU0NywxMjcuNSwyNDkuNTU0NyIgc3R5bGU9InN0cm9rZTojMTgxODE4O3N0cm9rZS13aWR0aDoxLjA7Ii8+PGxpbmUgc3R5bGU9InN0cm9rZTojMTgxODE4O3N0cm9rZS13aWR0aDoxLjA7c3Ryb2tlLWRhc2hhcnJheToyLjAsMi4wOyIgeDE9IjEyNS41IiB4Mj0iNDM4IiB5MT0iMjQ5LjU1NDciIHkyPSIyNDkuNTU0NyIvPjx0ZXh0IGZpbGw9IiMwMDAwMDAiIGZvbnQtZmFtaWx5PSJzYW5zLXNlcmlmIiBmb250LXNpemU9IjEzIiBsZW5ndGhBZGp1c3Q9InNwYWNpbmciIHRleHRMZW5ndGg9IjQ5IiB4PSIxMzcuNSIgeT0iMjQ1LjkyOTciPnN1Y2Nlc3M8L3RleHQ+PHBvbHlnb24gZmlsbD0iIzE4MTgxOCIgcG9pbnRzPSI0ODgsMjczLjQ2ODgsNDk4LDI3Ny40Njg4LDQ4OCwyODEuNDY4OCw0OTIsMjc3LjQ2ODgiIHN0eWxlPSJzdHJva2U6IzE4MTgxODtzdHJva2Utd2lkdGg6MS4wOyIvPjxsaW5lIHN0eWxlPSJzdHJva2U6IzE4MTgxODtzdHJva2Utd2lkdGg6MS4wOyIgeDE9IjEyMC41IiB4Mj0iNDk0IiB5MT0iMjc3LjQ2ODgiIHkyPSIyNzcuNDY4OCIvPjx0ZXh0IGZpbGw9IiMwMDAwMDAiIGZvbnQtZmFtaWx5PSJzYW5zLXNlcmlmIiBmb250LXNpemU9IjEzIiBsZW5ndGhBZGp1c3Q9InNwYWNpbmciIHRleHRMZW5ndGg9IjQ5IiB4PSIxMjcuNSIgeT0iMjczLjg0MzgiPnN1Y2Nlc3M8L3RleHQ+PHBvbHlnb24gZmlsbD0iIzE4MTgxOCIgcG9pbnRzPSIxMzEuNSwyODcuNDY4OCwxMjEuNSwyOTEuNDY4OCwxMzEuNSwyOTUuNDY4OCwxMjcuNSwyOTEuNDY4OCIgc3R5bGU9InN0cm9rZTojMTgxODE4O3N0cm9rZS13aWR0aDoxLjA7Ii8+PGxpbmUgc3R5bGU9InN0cm9rZTojMTgxODE4O3N0cm9rZS13aWR0aDoxLjA7c3Ryb2tlLWRhc2hhcnJheToyLjAsMi4wOyIgeDE9IjEyNS41IiB4Mj0iNTA0IiB5MT0iMjkxLjQ2ODgiIHkyPSIyOTEuNDY4OCIvPjxwb2x5Z29uIGZpbGw9IiMxODE4MTgiIHBvaW50cz0iNDg4LDMxNS4zODI4LDQ5OCwzMTkuMzgyOCw0ODgsMzIzLjM4MjgsNDkyLDMxOS4zODI4IiBzdHlsZT0ic3Ryb2tlOiMxODE4MTg7c3Ryb2tlLXdpZHRoOjEuMDsiLz48bGluZSBzdHlsZT0ic3Ryb2tlOiMxODE4MTg7c3Ryb2tlLXdpZHRoOjEuMDsiIHgxPSIxMjAuNSIgeDI9IjQ5NCIgeTE9IjMxOS4zODI4IiB5Mj0iMzE5LjM4MjgiLz48dGV4dCBmaWxsPSIjMDAwMDAwIiBmb250LWZhbWlseT0ic2Fucy1zZXJpZiIgZm9udC1zaXplPSIxMyIgbGVuZ3RoQWRqdXN0PSJzcGFjaW5nIiB0ZXh0TGVuZ3RoPSIyNyIgeD0iMTI3LjUiIHk9IjMxNS43NTc4Ij53YXJuPC90ZXh0Pjxwb2x5Z29uIGZpbGw9IiMxODE4MTgiIHBvaW50cz0iMTMxLjUsMzI5LjM4MjgsMTIxLjUsMzMzLjM4MjgsMTMxLjUsMzM3LjM4MjgsMTI3LjUsMzMzLjM4MjgiIHN0eWxlPSJzdHJva2U6IzE4MTgxODtzdHJva2Utd2lkdGg6MS4wOyIvPjxsaW5lIHN0eWxlPSJzdHJva2U6IzE4MTgxODtzdHJva2Utd2lkdGg6MS4wO3N0cm9rZS1kYXNoYXJyYXk6Mi4wLDIuMDsiIHgxPSIxMjUuNSIgeDI9IjUwNCIgeTE9IjMzMy4zODI4IiB5Mj0iMzMzLjM4MjgiLz48cG9seWdvbiBmaWxsPSIjMTgxODE4IiBwb2ludHM9IjM2LjUsMzQzLjM4MjgsMjYuNSwzNDcuMzgyOCwzNi41LDM1MS4zODI4LDMyLjUsMzQ3LjM4MjgiIHN0eWxlPSJzdHJva2U6IzE4MTgxODtzdHJva2Utd2lkdGg6MS4wOyIvPjxsaW5lIHN0eWxlPSJzdHJva2U6IzE4MTgxODtzdHJva2Utd2lkdGg6MS4wO3N0cm9rZS1kYXNoYXJyYXk6Mi4wLDIuMDsiIHgxPSIzMC41IiB4Mj0iMTE0LjUiIHkxPSIzNDcuMzgyOCIgeTI9IjM0Ny4zODI4Ii8+PCEtLVNSQz1baFA4bjNpOG0zNE50ZDI4TncwS09hMldpTkhZMlVXMGhESVlZSlFoNDVGTnNqNDFlTWVuV09DYlctX19kXzBHcUVJeXR1b2JReTZJcVFTNklCMEZ3aTdNTWxBamhQN2U3ejl0SEU2aUtrdjlDN01RcjcwOW9pcWc4RXJMY3dvTENoWUhLTE02RkplMGNxbTdYc3B2WWdPYXNKelJXU0s4UUF0YV9kZGplU0U0TWp2aDlDZE9US0k2bHZUUHVmWjM4NlpYWmlTbHh4U0x4ajNKbk9yMW56M2lyQVpYVzRsNFprV2NLZmYtRXlTMW1xSGYzSUJjZjBTVE1ZVW1iS2FCelMyTnJxVjBBdGx4M1JIMHpfWFpwV2pGUzNHMDBdLS0+PC9nPjwvc3ZnPg==;" vertex="1" parent="1">
            <mxGeometry x="70" y="1450" width="521" height="444" as="geometry" />
          </mxCell>
        </UserObject>
        <UserObject label="" plantUmlData="{&#xa;  &quot;data&quot;: &quot;@startuml\n\nactor Actor\nparticipant UsersController\nparticipant BaseService\nparticipant R\n\nActor -&gt; UsersController : updInfo\nactivate UsersController\n\nUsersController -&gt; BaseService : update\nactivate BaseService\n\nBaseService -&gt; R : update\nactivate R\nR --&gt; BaseService : \ndeactivate R\n\nBaseService --&gt; UsersController : success\ndeactivate BaseService\n\nUsersController --&gt; Actor : success\ndeactivate UsersController\n\n@enduml&quot;,&#xa;  &quot;format&quot;: &quot;svg&quot;&#xa;}" id="WzdI1a4IJHju0GnlryfJ-8">
          <mxCell style="shape=image;noLabel=1;verticalAlign=top;aspect=fixed;imageAspect=0;image=data:image/svg+xml,PD94bWwgdmVyc2lvbj0iMS4wIiBlbmNvZGluZz0idXMtYXNjaWkiIHN0YW5kYWxvbmU9Im5vIj8+PHN2ZyB4bWxucz0iaHR0cDovL3d3dy53My5vcmcvMjAwMC9zdmciIHhtbG5zOnhsaW5rPSJodHRwOi8vd3d3LnczLm9yZy8xOTk5L3hsaW5rIiBjb250ZW50U3R5bGVUeXBlPSJ0ZXh0L2NzcyIgaGVpZ2h0PSIzMzNweCIgcHJlc2VydmVBc3BlY3RSYXRpbz0ibm9uZSIgc3R5bGU9IndpZHRoOjMxN3B4O2hlaWdodDozMzNweDtiYWNrZ3JvdW5kOiNGRkZGRkY7IiB2ZXJzaW9uPSIxLjEiIHZpZXdCb3g9IjAgMCAzMTcgMzMzIiB3aWR0aD0iMzE3cHgiIHpvb21BbmRQYW49Im1hZ25pZnkiPjxkZWZzLz48Zz48cmVjdCBmaWxsPSIjRkZGRkZGIiBoZWlnaHQ9IjEyNS42NTYzIiBzdHlsZT0ic3Ryb2tlOiMxODE4MTg7c3Ryb2tlLXdpZHRoOjEuMDsiIHdpZHRoPSIxMCIgeD0iMTEwLjUiIHk9IjEwOS44OTg0Ii8+PHJlY3QgZmlsbD0iI0ZGRkZGRiIgaGVpZ2h0PSI2OS44MjgxIiBzdHlsZT0ic3Ryb2tlOiMxODE4MTg7c3Ryb2tlLXdpZHRoOjEuMDsiIHdpZHRoPSIxMCIgeD0iMjI1LjUiIHk9IjEzNy44MTI1Ii8+PHJlY3QgZmlsbD0iI0ZGRkZGRiIgaGVpZ2h0PSIxNCIgc3R5bGU9InN0cm9rZTojMTgxODE4O3N0cm9rZS13aWR0aDoxLjA7IiB3aWR0aD0iMTAiIHg9IjI5NS41IiB5PSIxNjUuNzI2NiIvPjxsaW5lIHN0eWxlPSJzdHJva2U6IzE4MTgxODtzdHJva2Utd2lkdGg6MC41O3N0cm9rZS1kYXNoYXJyYXk6NS4wLDUuMDsiIHgxPSIyNSIgeDI9IjI1IiB5MT0iNzkuOTg0NCIgeTI9IjI1My41NTQ3Ii8+PGxpbmUgc3R5bGU9InN0cm9rZTojMTgxODE4O3N0cm9rZS13aWR0aDowLjU7c3Ryb2tlLWRhc2hhcnJheTo1LjAsNS4wOyIgeDE9IjExNSIgeDI9IjExNSIgeTE9Ijc5Ljk4NDQiIHkyPSIyNTMuNTU0NyIvPjxsaW5lIHN0eWxlPSJzdHJva2U6IzE4MTgxODtzdHJva2Utd2lkdGg6MC41O3N0cm9rZS1kYXNoYXJyYXk6NS4wLDUuMDsiIHgxPSIyMzAiIHgyPSIyMzAiIHkxPSI3OS45ODQ0IiB5Mj0iMjUzLjU1NDciLz48bGluZSBzdHlsZT0ic3Ryb2tlOiMxODE4MTg7c3Ryb2tlLXdpZHRoOjAuNTtzdHJva2UtZGFzaGFycmF5OjUuMCw1LjA7IiB4MT0iMzAwIiB4Mj0iMzAwIiB5MT0iNzkuOTg0NCIgeTI9IjI1My41NTQ3Ii8+PHRleHQgZmlsbD0iIzAwMDAwMCIgZm9udC1mYW1pbHk9InNhbnMtc2VyaWYiIGZvbnQtc2l6ZT0iMTQiIGxlbmd0aEFkanVzdD0ic3BhY2luZyIgdGV4dExlbmd0aD0iMzUiIHg9IjUiIHk9Ijc4LjIzNDQiPkFjdG9yPC90ZXh0PjxlbGxpcHNlIGN4PSIyNS41IiBjeT0iMTMuNSIgZmlsbD0iI0UyRTJGMCIgcng9IjgiIHJ5PSI4IiBzdHlsZT0ic3Ryb2tlOiMxODE4MTg7c3Ryb2tlLXdpZHRoOjAuNTsiLz48cGF0aCBkPSJNMjUuNSwyMS41IEwyNS41LDQ4LjUgTTEyLjUsMjkuNSBMMzguNSwyOS41IE0yNS41LDQ4LjUgTDEyLjUsNjMuNSBNMjUuNSw0OC41IEwzOC41LDYzLjUgIiBmaWxsPSJub25lIiBzdHlsZT0ic3Ryb2tlOiMxODE4MTg7c3Ryb2tlLXdpZHRoOjAuNTsiLz48dGV4dCBmaWxsPSIjMDAwMDAwIiBmb250LWZhbWlseT0ic2Fucy1zZXJpZiIgZm9udC1zaXplPSIxNCIgbGVuZ3RoQWRqdXN0PSJzcGFjaW5nIiB0ZXh0TGVuZ3RoPSIzNSIgeD0iNSIgeT0iMjY1Ljc4OTEiPkFjdG9yPC90ZXh0PjxlbGxpcHNlIGN4PSIyNS41IiBjeT0iMjc2LjAzOTEiIGZpbGw9IiNFMkUyRjAiIHJ4PSI4IiByeT0iOCIgc3R5bGU9InN0cm9rZTojMTgxODE4O3N0cm9rZS13aWR0aDowLjU7Ii8+PHBhdGggZD0iTTI1LjUsMjg0LjAzOTEgTDI1LjUsMzExLjAzOTEgTTEyLjUsMjkyLjAzOTEgTDM4LjUsMjkyLjAzOTEgTTI1LjUsMzExLjAzOTEgTDEyLjUsMzI2LjAzOTEgTTI1LjUsMzExLjAzOTEgTDM4LjUsMzI2LjAzOTEgIiBmaWxsPSJub25lIiBzdHlsZT0ic3Ryb2tlOiMxODE4MTg7c3Ryb2tlLXdpZHRoOjAuNTsiLz48cmVjdCBmaWxsPSIjRTJFMkYwIiBoZWlnaHQ9IjI4Ljk4NDQiIHJ4PSIyLjUiIHJ5PSIyLjUiIHN0eWxlPSJzdHJva2U6IzE4MTgxODtzdHJva2Utd2lkdGg6MC41OyIgd2lkdGg9IjExOSIgeD0iNTYiIHk9IjUwIi8+PHRleHQgZmlsbD0iIzAwMDAwMCIgZm9udC1mYW1pbHk9InNhbnMtc2VyaWYiIGZvbnQtc2l6ZT0iMTQiIGxlbmd0aEFkanVzdD0ic3BhY2luZyIgdGV4dExlbmd0aD0iMTA1IiB4PSI2MyIgeT0iNzAuMjM0NCI+VXNlcnNDb250cm9sbGVyPC90ZXh0PjxyZWN0IGZpbGw9IiNFMkUyRjAiIGhlaWdodD0iMjguOTg0NCIgcng9IjIuNSIgcnk9IjIuNSIgc3R5bGU9InN0cm9rZTojMTgxODE4O3N0cm9rZS13aWR0aDowLjU7IiB3aWR0aD0iMTE5IiB4PSI1NiIgeT0iMjUyLjU1NDciLz48dGV4dCBmaWxsPSIjMDAwMDAwIiBmb250LWZhbWlseT0ic2Fucy1zZXJpZiIgZm9udC1zaXplPSIxNCIgbGVuZ3RoQWRqdXN0PSJzcGFjaW5nIiB0ZXh0TGVuZ3RoPSIxMDUiIHg9IjYzIiB5PSIyNzIuNzg5MSI+VXNlcnNDb250cm9sbGVyPC90ZXh0PjxyZWN0IGZpbGw9IiNFMkUyRjAiIGhlaWdodD0iMjguOTg0NCIgcng9IjIuNSIgcnk9IjIuNSIgc3R5bGU9InN0cm9rZTojMTgxODE4O3N0cm9rZS13aWR0aDowLjU7IiB3aWR0aD0iOTEiIHg9IjE4NSIgeT0iNTAiLz48dGV4dCBmaWxsPSIjMDAwMDAwIiBmb250LWZhbWlseT0ic2Fucy1zZXJpZiIgZm9udC1zaXplPSIxNCIgbGVuZ3RoQWRqdXN0PSJzcGFjaW5nIiB0ZXh0TGVuZ3RoPSI3NyIgeD0iMTkyIiB5PSI3MC4yMzQ0Ij5CYXNlU2VydmljZTwvdGV4dD48cmVjdCBmaWxsPSIjRTJFMkYwIiBoZWlnaHQ9IjI4Ljk4NDQiIHJ4PSIyLjUiIHJ5PSIyLjUiIHN0eWxlPSJzdHJva2U6IzE4MTgxODtzdHJva2Utd2lkdGg6MC41OyIgd2lkdGg9IjkxIiB4PSIxODUiIHk9IjI1Mi41NTQ3Ii8+PHRleHQgZmlsbD0iIzAwMDAwMCIgZm9udC1mYW1pbHk9InNhbnMtc2VyaWYiIGZvbnQtc2l6ZT0iMTQiIGxlbmd0aEFkanVzdD0ic3BhY2luZyIgdGV4dExlbmd0aD0iNzciIHg9IjE5MiIgeT0iMjcyLjc4OTEiPkJhc2VTZXJ2aWNlPC90ZXh0PjxyZWN0IGZpbGw9IiNFMkUyRjAiIGhlaWdodD0iMjguOTg0NCIgcng9IjIuNSIgcnk9IjIuNSIgc3R5bGU9InN0cm9rZTojMTgxODE4O3N0cm9rZS13aWR0aDowLjU7IiB3aWR0aD0iMjEiIHg9IjI5MCIgeT0iNTAiLz48dGV4dCBmaWxsPSIjMDAwMDAwIiBmb250LWZhbWlseT0ic2Fucy1zZXJpZiIgZm9udC1zaXplPSIxNCIgbGVuZ3RoQWRqdXN0PSJzcGFjaW5nIiB0ZXh0TGVuZ3RoPSI3IiB4PSIyOTciIHk9IjcwLjIzNDQiPlI8L3RleHQ+PHJlY3QgZmlsbD0iI0UyRTJGMCIgaGVpZ2h0PSIyOC45ODQ0IiByeD0iMi41IiByeT0iMi41IiBzdHlsZT0ic3Ryb2tlOiMxODE4MTg7c3Ryb2tlLXdpZHRoOjAuNTsiIHdpZHRoPSIyMSIgeD0iMjkwIiB5PSIyNTIuNTU0NyIvPjx0ZXh0IGZpbGw9IiMwMDAwMDAiIGZvbnQtZmFtaWx5PSJzYW5zLXNlcmlmIiBmb250LXNpemU9IjE0IiBsZW5ndGhBZGp1c3Q9InNwYWNpbmciIHRleHRMZW5ndGg9IjciIHg9IjI5NyIgeT0iMjcyLjc4OTEiPlI8L3RleHQ+PHJlY3QgZmlsbD0iI0ZGRkZGRiIgaGVpZ2h0PSIxMjUuNjU2MyIgc3R5bGU9InN0cm9rZTojMTgxODE4O3N0cm9rZS13aWR0aDoxLjA7IiB3aWR0aD0iMTAiIHg9IjExMC41IiB5PSIxMDkuODk4NCIvPjxyZWN0IGZpbGw9IiNGRkZGRkYiIGhlaWdodD0iNjkuODI4MSIgc3R5bGU9InN0cm9rZTojMTgxODE4O3N0cm9rZS13aWR0aDoxLjA7IiB3aWR0aD0iMTAiIHg9IjIyNS41IiB5PSIxMzcuODEyNSIvPjxyZWN0IGZpbGw9IiNGRkZGRkYiIGhlaWdodD0iMTQiIHN0eWxlPSJzdHJva2U6IzE4MTgxODtzdHJva2Utd2lkdGg6MS4wOyIgd2lkdGg9IjEwIiB4PSIyOTUuNSIgeT0iMTY1LjcyNjYiLz48cG9seWdvbiBmaWxsPSIjMTgxODE4IiBwb2ludHM9Ijk4LjUsMTA1Ljg5ODQsMTA4LjUsMTA5Ljg5ODQsOTguNSwxMTMuODk4NCwxMDIuNSwxMDkuODk4NCIgc3R5bGU9InN0cm9rZTojMTgxODE4O3N0cm9rZS13aWR0aDoxLjA7Ii8+PGxpbmUgc3R5bGU9InN0cm9rZTojMTgxODE4O3N0cm9rZS13aWR0aDoxLjA7IiB4MT0iMjUuNSIgeDI9IjEwNC41IiB5MT0iMTA5Ljg5ODQiIHkyPSIxMDkuODk4NCIvPjx0ZXh0IGZpbGw9IiMwMDAwMDAiIGZvbnQtZmFtaWx5PSJzYW5zLXNlcmlmIiBmb250LXNpemU9IjEzIiBsZW5ndGhBZGp1c3Q9InNwYWNpbmciIHRleHRMZW5ndGg9IjQ3IiB4PSIzMi41IiB5PSIxMDYuMjczNCI+dXBkSW5mbzwvdGV4dD48cG9seWdvbiBmaWxsPSIjMTgxODE4IiBwb2ludHM9IjIxMy41LDEzMy44MTI1LDIyMy41LDEzNy44MTI1LDIxMy41LDE0MS44MTI1LDIxNy41LDEzNy44MTI1IiBzdHlsZT0ic3Ryb2tlOiMxODE4MTg7c3Ryb2tlLXdpZHRoOjEuMDsiLz48bGluZSBzdHlsZT0ic3Ryb2tlOiMxODE4MTg7c3Ryb2tlLXdpZHRoOjEuMDsiIHgxPSIxMjAuNSIgeDI9IjIxOS41IiB5MT0iMTM3LjgxMjUiIHkyPSIxMzcuODEyNSIvPjx0ZXh0IGZpbGw9IiMwMDAwMDAiIGZvbnQtZmFtaWx5PSJzYW5zLXNlcmlmIiBmb250LXNpemU9IjEzIiBsZW5ndGhBZGp1c3Q9InNwYWNpbmciIHRleHRMZW5ndGg9IjQxIiB4PSIxMjcuNSIgeT0iMTM0LjE4NzUiPnVwZGF0ZTwvdGV4dD48cG9seWdvbiBmaWxsPSIjMTgxODE4IiBwb2ludHM9IjI4My41LDE2MS43MjY2LDI5My41LDE2NS43MjY2LDI4My41LDE2OS43MjY2LDI4Ny41LDE2NS43MjY2IiBzdHlsZT0ic3Ryb2tlOiMxODE4MTg7c3Ryb2tlLXdpZHRoOjEuMDsiLz48bGluZSBzdHlsZT0ic3Ryb2tlOiMxODE4MTg7c3Ryb2tlLXdpZHRoOjEuMDsiIHgxPSIyMzUuNSIgeDI9IjI4OS41IiB5MT0iMTY1LjcyNjYiIHkyPSIxNjUuNzI2NiIvPjx0ZXh0IGZpbGw9IiMwMDAwMDAiIGZvbnQtZmFtaWx5PSJzYW5zLXNlcmlmIiBmb250LXNpemU9IjEzIiBsZW5ndGhBZGp1c3Q9InNwYWNpbmciIHRleHRMZW5ndGg9IjQxIiB4PSIyNDIuNSIgeT0iMTYyLjEwMTYiPnVwZGF0ZTwvdGV4dD48cG9seWdvbiBmaWxsPSIjMTgxODE4IiBwb2ludHM9IjI0Ni41LDE3NS43MjY2LDIzNi41LDE3OS43MjY2LDI0Ni41LDE4My43MjY2LDI0Mi41LDE3OS43MjY2IiBzdHlsZT0ic3Ryb2tlOiMxODE4MTg7c3Ryb2tlLXdpZHRoOjEuMDsiLz48bGluZSBzdHlsZT0ic3Ryb2tlOiMxODE4MTg7c3Ryb2tlLXdpZHRoOjEuMDtzdHJva2UtZGFzaGFycmF5OjIuMCwyLjA7IiB4MT0iMjQwLjUiIHgyPSIyOTkuNSIgeTE9IjE3OS43MjY2IiB5Mj0iMTc5LjcyNjYiLz48cG9seWdvbiBmaWxsPSIjMTgxODE4IiBwb2ludHM9IjEzMS41LDIwMy42NDA2LDEyMS41LDIwNy42NDA2LDEzMS41LDIxMS42NDA2LDEyNy41LDIwNy42NDA2IiBzdHlsZT0ic3Ryb2tlOiMxODE4MTg7c3Ryb2tlLXdpZHRoOjEuMDsiLz48bGluZSBzdHlsZT0ic3Ryb2tlOiMxODE4MTg7c3Ryb2tlLXdpZHRoOjEuMDtzdHJva2UtZGFzaGFycmF5OjIuMCwyLjA7IiB4MT0iMTI1LjUiIHgyPSIyMjkuNSIgeTE9IjIwNy42NDA2IiB5Mj0iMjA3LjY0MDYiLz48dGV4dCBmaWxsPSIjMDAwMDAwIiBmb250LWZhbWlseT0ic2Fucy1zZXJpZiIgZm9udC1zaXplPSIxMyIgbGVuZ3RoQWRqdXN0PSJzcGFjaW5nIiB0ZXh0TGVuZ3RoPSI0OSIgeD0iMTM3LjUiIHk9IjIwNC4wMTU2Ij5zdWNjZXNzPC90ZXh0Pjxwb2x5Z29uIGZpbGw9IiMxODE4MTgiIHBvaW50cz0iMzYuNSwyMzEuNTU0NywyNi41LDIzNS41NTQ3LDM2LjUsMjM5LjU1NDcsMzIuNSwyMzUuNTU0NyIgc3R5bGU9InN0cm9rZTojMTgxODE4O3N0cm9rZS13aWR0aDoxLjA7Ii8+PGxpbmUgc3R5bGU9InN0cm9rZTojMTgxODE4O3N0cm9rZS13aWR0aDoxLjA7c3Ryb2tlLWRhc2hhcnJheToyLjAsMi4wOyIgeDE9IjMwLjUiIHgyPSIxMTQuNSIgeTE9IjIzNS41NTQ3IiB5Mj0iMjM1LjU1NDciLz48dGV4dCBmaWxsPSIjMDAwMDAwIiBmb250LWZhbWlseT0ic2Fucy1zZXJpZiIgZm9udC1zaXplPSIxMyIgbGVuZ3RoQWRqdXN0PSJzcGFjaW5nIiB0ZXh0TGVuZ3RoPSI0OSIgeD0iNDIuNSIgeT0iMjMxLjkyOTciPnN1Y2Nlc3M8L3RleHQ+PCEtLVNSQz1bUlAwbjNpQ1czNEx0ZHk4Tm8wS3dMNmV4VFFOZzBJcDdiUDBZR0RaOS1La1I4SDFPRkUzX2RjczhCTVF5X0llYW9rUlA5bWc2UnZNaVpuV2luc01IamRTZGJQVmFwUkNxeG14V0J5QmZVa1JuV2NrUWQtNEpXVFp5SFlSVDIzV3BITEVEc1hLNUYwcHI4YjE3Mi1hNlVHU0VmeXVBaXJJOXJaRXlINVRjS1FzdlBmRmtaY0JQRnNSOGRrOVZdLS0+PC9nPjwvc3ZnPg==;" vertex="1" parent="1">
            <mxGeometry x="110" y="1950" width="317" height="333" as="geometry" />
          </mxCell>
        </UserObject>
        <UserObject label="" plantUmlData="{&#xa;  &quot;data&quot;: &quot;@startuml\n\nactor Actor\nparticipant UsersController\nparticipant UsersService\nparticipant BaseService\nparticipant R\n\n&#39; Actor to UsersController\nActor -&gt; UsersController : delInfo\nactivate UsersController\n\n&#39; UsersController to UsersService\nUsersController -&gt; UsersService : isRemove\nactivate UsersService\n\n&#39; UsersService to BaseService\nUsersService -&gt; BaseService : getOne\nactivate BaseService\n\n&#39; BaseService to R\nBaseService -&gt; R : delete\nactivate R\nR --&gt; BaseService : success\ndeactivate R\n\nBaseService --&gt; UsersService : success\ndeactivate BaseService\n\n&#39; Alternative paths can be shown with alt/else\nalt some condition\n    UsersService --&gt; UsersController : success\nelse some other condition\n    UsersService --&gt; UsersController : warn\nend\n\ndeactivate UsersService\nUsersController --&gt; Actor : response\ndeactivate UsersController\n\n@enduml&quot;,&#xa;  &quot;format&quot;: &quot;svg&quot;&#xa;}" id="WzdI1a4IJHju0GnlryfJ-9">
          <mxCell style="shape=image;noLabel=1;verticalAlign=top;aspect=fixed;imageAspect=0;image=data:image/svg+xml,PD94bWwgdmVyc2lvbj0iMS4wIiBlbmNvZGluZz0idXMtYXNjaWkiIHN0YW5kYWxvbmU9Im5vIj8+PHN2ZyB4bWxucz0iaHR0cDovL3d3dy53My5vcmcvMjAwMC9zdmciIHhtbG5zOnhsaW5rPSJodHRwOi8vd3d3LnczLm9yZy8xOTk5L3hsaW5rIiBjb250ZW50U3R5bGVUeXBlPSJ0ZXh0L2NzcyIgaGVpZ2h0PSI0NzRweCIgcHJlc2VydmVBc3BlY3RSYXRpbz0ibm9uZSIgc3R5bGU9IndpZHRoOjQzOHB4O2hlaWdodDo0NzRweDtiYWNrZ3JvdW5kOiNGRkZGRkY7IiB2ZXJzaW9uPSIxLjEiIHZpZXdCb3g9IjAgMCA0MzggNDc0IiB3aWR0aD0iNDM4cHgiIHpvb21BbmRQYW49Im1hZ25pZnkiPjxkZWZzLz48Zz48cmVjdCBmaWxsPSIjRkZGRkZGIiBoZWlnaHQ9IjI2NyIgc3R5bGU9InN0cm9rZTojMTgxODE4O3N0cm9rZS13aWR0aDoxLjA7IiB3aWR0aD0iMTAiIHg9IjExMC41IiB5PSIxMDkuODk4NCIvPjxyZWN0IGZpbGw9IiNGRkZGRkYiIGhlaWdodD0iMjE5LjE3MTkiIHN0eWxlPSJzdHJva2U6IzE4MTgxODtzdHJva2Utd2lkdGg6MS4wOyIgd2lkdGg9IjEwIiB4PSIyMjkiIHk9IjEzNy44MTI1Ii8+PHJlY3QgZmlsbD0iI0ZGRkZGRiIgaGVpZ2h0PSI4My43NDIyIiBzdHlsZT0ic3Ryb2tlOiMxODE4MTg7c3Ryb2tlLXdpZHRoOjEuMDsiIHdpZHRoPSIxMCIgeD0iMzMzLjUiIHk9IjE2NS43MjY2Ii8+PHJlY3QgZmlsbD0iI0ZGRkZGRiIgaGVpZ2h0PSIyNy45MTQxIiBzdHlsZT0ic3Ryb2tlOiMxODE4MTg7c3Ryb2tlLXdpZHRoOjEuMDsiIHdpZHRoPSIxMCIgeD0iNDE2LjUiIHk9IjE5My42NDA2Ii8+PHJlY3QgZmlsbD0ibm9uZSIgaGVpZ2h0PSI4NS41MTU2IiBzdHlsZT0ic3Ryb2tlOiMwMDAwMDA7c3Ryb2tlLXdpZHRoOjEuNTsiIHdpZHRoPSIyNDciIHg9IjQ2IiB5PSIyNjQuNDY4OCIvPjxsaW5lIHN0eWxlPSJzdHJva2U6IzE4MTgxODtzdHJva2Utd2lkdGg6MC41O3N0cm9rZS1kYXNoYXJyYXk6NS4wLDUuMDsiIHgxPSIyNSIgeDI9IjI1IiB5MT0iNzkuOTg0NCIgeTI9IjM5NC44OTg0Ii8+PGxpbmUgc3R5bGU9InN0cm9rZTojMTgxODE4O3N0cm9rZS13aWR0aDowLjU7c3Ryb2tlLWRhc2hhcnJheTo1LjAsNS4wOyIgeDE9IjExNSIgeDI9IjExNSIgeTE9Ijc5Ljk4NDQiIHkyPSIzOTQuODk4NCIvPjxsaW5lIHN0eWxlPSJzdHJva2U6IzE4MTgxODtzdHJva2Utd2lkdGg6MC41O3N0cm9rZS1kYXNoYXJyYXk6NS4wLDUuMDsiIHgxPSIyMzQiIHgyPSIyMzQiIHkxPSI3OS45ODQ0IiB5Mj0iMzk0Ljg5ODQiLz48bGluZSBzdHlsZT0ic3Ryb2tlOiMxODE4MTg7c3Ryb2tlLXdpZHRoOjAuNTtzdHJva2UtZGFzaGFycmF5OjUuMCw1LjA7IiB4MT0iMzM4IiB4Mj0iMzM4IiB5MT0iNzkuOTg0NCIgeTI9IjM5NC44OTg0Ii8+PGxpbmUgc3R5bGU9InN0cm9rZTojMTgxODE4O3N0cm9rZS13aWR0aDowLjU7c3Ryb2tlLWRhc2hhcnJheTo1LjAsNS4wOyIgeDE9IjQyMSIgeDI9IjQyMSIgeTE9Ijc5Ljk4NDQiIHkyPSIzOTQuODk4NCIvPjx0ZXh0IGZpbGw9IiMwMDAwMDAiIGZvbnQtZmFtaWx5PSJzYW5zLXNlcmlmIiBmb250LXNpemU9IjE0IiBsZW5ndGhBZGp1c3Q9InNwYWNpbmciIHRleHRMZW5ndGg9IjM1IiB4PSI1IiB5PSI3OC4yMzQ0Ij5BY3RvcjwvdGV4dD48ZWxsaXBzZSBjeD0iMjUuNSIgY3k9IjEzLjUiIGZpbGw9IiNFMkUyRjAiIHJ4PSI4IiByeT0iOCIgc3R5bGU9InN0cm9rZTojMTgxODE4O3N0cm9rZS13aWR0aDowLjU7Ii8+PHBhdGggZD0iTTI1LjUsMjEuNSBMMjUuNSw0OC41IE0xMi41LDI5LjUgTDM4LjUsMjkuNSBNMjUuNSw0OC41IEwxMi41LDYzLjUgTTI1LjUsNDguNSBMMzguNSw2My41ICIgZmlsbD0ibm9uZSIgc3R5bGU9InN0cm9rZTojMTgxODE4O3N0cm9rZS13aWR0aDowLjU7Ii8+PHRleHQgZmlsbD0iIzAwMDAwMCIgZm9udC1mYW1pbHk9InNhbnMtc2VyaWYiIGZvbnQtc2l6ZT0iMTQiIGxlbmd0aEFkanVzdD0ic3BhY2luZyIgdGV4dExlbmd0aD0iMzUiIHg9IjUiIHk9IjQwNy4xMzI4Ij5BY3RvcjwvdGV4dD48ZWxsaXBzZSBjeD0iMjUuNSIgY3k9IjQxNy4zODI4IiBmaWxsPSIjRTJFMkYwIiByeD0iOCIgcnk9IjgiIHN0eWxlPSJzdHJva2U6IzE4MTgxODtzdHJva2Utd2lkdGg6MC41OyIvPjxwYXRoIGQ9Ik0yNS41LDQyNS4zODI4IEwyNS41LDQ1Mi4zODI4IE0xMi41LDQzMy4zODI4IEwzOC41LDQzMy4zODI4IE0yNS41LDQ1Mi4zODI4IEwxMi41LDQ2Ny4zODI4IE0yNS41LDQ1Mi4zODI4IEwzOC41LDQ2Ny4zODI4ICIgZmlsbD0ibm9uZSIgc3R5bGU9InN0cm9rZTojMTgxODE4O3N0cm9rZS13aWR0aDowLjU7Ii8+PHJlY3QgZmlsbD0iI0UyRTJGMCIgaGVpZ2h0PSIyOC45ODQ0IiByeD0iMi41IiByeT0iMi41IiBzdHlsZT0ic3Ryb2tlOiMxODE4MTg7c3Ryb2tlLXdpZHRoOjAuNTsiIHdpZHRoPSIxMTkiIHg9IjU2IiB5PSI1MCIvPjx0ZXh0IGZpbGw9IiMwMDAwMDAiIGZvbnQtZmFtaWx5PSJzYW5zLXNlcmlmIiBmb250LXNpemU9IjE0IiBsZW5ndGhBZGp1c3Q9InNwYWNpbmciIHRleHRMZW5ndGg9IjEwNSIgeD0iNjMiIHk9IjcwLjIzNDQiPlVzZXJzQ29udHJvbGxlcjwvdGV4dD48cmVjdCBmaWxsPSIjRTJFMkYwIiBoZWlnaHQ9IjI4Ljk4NDQiIHJ4PSIyLjUiIHJ5PSIyLjUiIHN0eWxlPSJzdHJva2U6IzE4MTgxODtzdHJva2Utd2lkdGg6MC41OyIgd2lkdGg9IjExOSIgeD0iNTYiIHk9IjM5My44OTg0Ii8+PHRleHQgZmlsbD0iIzAwMDAwMCIgZm9udC1mYW1pbHk9InNhbnMtc2VyaWYiIGZvbnQtc2l6ZT0iMTQiIGxlbmd0aEFkanVzdD0ic3BhY2luZyIgdGV4dExlbmd0aD0iMTA1IiB4PSI2MyIgeT0iNDE0LjEzMjgiPlVzZXJzQ29udHJvbGxlcjwvdGV4dD48cmVjdCBmaWxsPSIjRTJFMkYwIiBoZWlnaHQ9IjI4Ljk4NDQiIHJ4PSIyLjUiIHJ5PSIyLjUiIHN0eWxlPSJzdHJva2U6IzE4MTgxODtzdHJva2Utd2lkdGg6MC41OyIgd2lkdGg9Ijk4IiB4PSIxODUiIHk9IjUwIi8+PHRleHQgZmlsbD0iIzAwMDAwMCIgZm9udC1mYW1pbHk9InNhbnMtc2VyaWYiIGZvbnQtc2l6ZT0iMTQiIGxlbmd0aEFkanVzdD0ic3BhY2luZyIgdGV4dExlbmd0aD0iODQiIHg9IjE5MiIgeT0iNzAuMjM0NCI+VXNlcnNTZXJ2aWNlPC90ZXh0PjxyZWN0IGZpbGw9IiNFMkUyRjAiIGhlaWdodD0iMjguOTg0NCIgcng9IjIuNSIgcnk9IjIuNSIgc3R5bGU9InN0cm9rZTojMTgxODE4O3N0cm9rZS13aWR0aDowLjU7IiB3aWR0aD0iOTgiIHg9IjE4NSIgeT0iMzkzLjg5ODQiLz48dGV4dCBmaWxsPSIjMDAwMDAwIiBmb250LWZhbWlseT0ic2Fucy1zZXJpZiIgZm9udC1zaXplPSIxNCIgbGVuZ3RoQWRqdXN0PSJzcGFjaW5nIiB0ZXh0TGVuZ3RoPSI4NCIgeD0iMTkyIiB5PSI0MTQuMTMyOCI+VXNlcnNTZXJ2aWNlPC90ZXh0PjxyZWN0IGZpbGw9IiNFMkUyRjAiIGhlaWdodD0iMjguOTg0NCIgcng9IjIuNSIgcnk9IjIuNSIgc3R5bGU9InN0cm9rZTojMTgxODE4O3N0cm9rZS13aWR0aDowLjU7IiB3aWR0aD0iOTEiIHg9IjI5MyIgeT0iNTAiLz48dGV4dCBmaWxsPSIjMDAwMDAwIiBmb250LWZhbWlseT0ic2Fucy1zZXJpZiIgZm9udC1zaXplPSIxNCIgbGVuZ3RoQWRqdXN0PSJzcGFjaW5nIiB0ZXh0TGVuZ3RoPSI3NyIgeD0iMzAwIiB5PSI3MC4yMzQ0Ij5CYXNlU2VydmljZTwvdGV4dD48cmVjdCBmaWxsPSIjRTJFMkYwIiBoZWlnaHQ9IjI4Ljk4NDQiIHJ4PSIyLjUiIHJ5PSIyLjUiIHN0eWxlPSJzdHJva2U6IzE4MTgxODtzdHJva2Utd2lkdGg6MC41OyIgd2lkdGg9IjkxIiB4PSIyOTMiIHk9IjM5My44OTg0Ii8+PHRleHQgZmlsbD0iIzAwMDAwMCIgZm9udC1mYW1pbHk9InNhbnMtc2VyaWYiIGZvbnQtc2l6ZT0iMTQiIGxlbmd0aEFkanVzdD0ic3BhY2luZyIgdGV4dExlbmd0aD0iNzciIHg9IjMwMCIgeT0iNDE0LjEzMjgiPkJhc2VTZXJ2aWNlPC90ZXh0PjxyZWN0IGZpbGw9IiNFMkUyRjAiIGhlaWdodD0iMjguOTg0NCIgcng9IjIuNSIgcnk9IjIuNSIgc3R5bGU9InN0cm9rZTojMTgxODE4O3N0cm9rZS13aWR0aDowLjU7IiB3aWR0aD0iMjEiIHg9IjQxMSIgeT0iNTAiLz48dGV4dCBmaWxsPSIjMDAwMDAwIiBmb250LWZhbWlseT0ic2Fucy1zZXJpZiIgZm9udC1zaXplPSIxNCIgbGVuZ3RoQWRqdXN0PSJzcGFjaW5nIiB0ZXh0TGVuZ3RoPSI3IiB4PSI0MTgiIHk9IjcwLjIzNDQiPlI8L3RleHQ+PHJlY3QgZmlsbD0iI0UyRTJGMCIgaGVpZ2h0PSIyOC45ODQ0IiByeD0iMi41IiByeT0iMi41IiBzdHlsZT0ic3Ryb2tlOiMxODE4MTg7c3Ryb2tlLXdpZHRoOjAuNTsiIHdpZHRoPSIyMSIgeD0iNDExIiB5PSIzOTMuODk4NCIvPjx0ZXh0IGZpbGw9IiMwMDAwMDAiIGZvbnQtZmFtaWx5PSJzYW5zLXNlcmlmIiBmb250LXNpemU9IjE0IiBsZW5ndGhBZGp1c3Q9InNwYWNpbmciIHRleHRMZW5ndGg9IjciIHg9IjQxOCIgeT0iNDE0LjEzMjgiPlI8L3RleHQ+PHJlY3QgZmlsbD0iI0ZGRkZGRiIgaGVpZ2h0PSIyNjciIHN0eWxlPSJzdHJva2U6IzE4MTgxODtzdHJva2Utd2lkdGg6MS4wOyIgd2lkdGg9IjEwIiB4PSIxMTAuNSIgeT0iMTA5Ljg5ODQiLz48cmVjdCBmaWxsPSIjRkZGRkZGIiBoZWlnaHQ9IjIxOS4xNzE5IiBzdHlsZT0ic3Ryb2tlOiMxODE4MTg7c3Ryb2tlLXdpZHRoOjEuMDsiIHdpZHRoPSIxMCIgeD0iMjI5IiB5PSIxMzcuODEyNSIvPjxyZWN0IGZpbGw9IiNGRkZGRkYiIGhlaWdodD0iODMuNzQyMiIgc3R5bGU9InN0cm9rZTojMTgxODE4O3N0cm9rZS13aWR0aDoxLjA7IiB3aWR0aD0iMTAiIHg9IjMzMy41IiB5PSIxNjUuNzI2NiIvPjxyZWN0IGZpbGw9IiNGRkZGRkYiIGhlaWdodD0iMjcuOTE0MSIgc3R5bGU9InN0cm9rZTojMTgxODE4O3N0cm9rZS13aWR0aDoxLjA7IiB3aWR0aD0iMTAiIHg9IjQxNi41IiB5PSIxOTMuNjQwNiIvPjxwb2x5Z29uIGZpbGw9IiMxODE4MTgiIHBvaW50cz0iOTguNSwxMDUuODk4NCwxMDguNSwxMDkuODk4NCw5OC41LDExMy44OTg0LDEwMi41LDEwOS44OTg0IiBzdHlsZT0ic3Ryb2tlOiMxODE4MTg7c3Ryb2tlLXdpZHRoOjEuMDsiLz48bGluZSBzdHlsZT0ic3Ryb2tlOiMxODE4MTg7c3Ryb2tlLXdpZHRoOjEuMDsiIHgxPSIyNS41IiB4Mj0iMTA0LjUiIHkxPSIxMDkuODk4NCIgeTI9IjEwOS44OTg0Ii8+PHRleHQgZmlsbD0iIzAwMDAwMCIgZm9udC1mYW1pbHk9InNhbnMtc2VyaWYiIGZvbnQtc2l6ZT0iMTMiIGxlbmd0aEFkanVzdD0ic3BhY2luZyIgdGV4dExlbmd0aD0iNDYiIHg9IjMyLjUiIHk9IjEwNi4yNzM0Ij5kZWxJbmZvPC90ZXh0Pjxwb2x5Z29uIGZpbGw9IiMxODE4MTgiIHBvaW50cz0iMjE3LDEzMy44MTI1LDIyNywxMzcuODEyNSwyMTcsMTQxLjgxMjUsMjIxLDEzNy44MTI1IiBzdHlsZT0ic3Ryb2tlOiMxODE4MTg7c3Ryb2tlLXdpZHRoOjEuMDsiLz48bGluZSBzdHlsZT0ic3Ryb2tlOiMxODE4MTg7c3Ryb2tlLXdpZHRoOjEuMDsiIHgxPSIxMjAuNSIgeDI9IjIyMyIgeTE9IjEzNy44MTI1IiB5Mj0iMTM3LjgxMjUiLz48dGV4dCBmaWxsPSIjMDAwMDAwIiBmb250LWZhbWlseT0ic2Fucy1zZXJpZiIgZm9udC1zaXplPSIxMyIgbGVuZ3RoQWRqdXN0PSJzcGFjaW5nIiB0ZXh0TGVuZ3RoPSI1NCIgeD0iMTI3LjUiIHk9IjEzNC4xODc1Ij5pc1JlbW92ZTwvdGV4dD48cG9seWdvbiBmaWxsPSIjMTgxODE4IiBwb2ludHM9IjMyMS41LDE2MS43MjY2LDMzMS41LDE2NS43MjY2LDMyMS41LDE2OS43MjY2LDMyNS41LDE2NS43MjY2IiBzdHlsZT0ic3Ryb2tlOiMxODE4MTg7c3Ryb2tlLXdpZHRoOjEuMDsiLz48bGluZSBzdHlsZT0ic3Ryb2tlOiMxODE4MTg7c3Ryb2tlLXdpZHRoOjEuMDsiIHgxPSIyMzkiIHgyPSIzMjcuNSIgeTE9IjE2NS43MjY2IiB5Mj0iMTY1LjcyNjYiLz48dGV4dCBmaWxsPSIjMDAwMDAwIiBmb250LWZhbWlseT0ic2Fucy1zZXJpZiIgZm9udC1zaXplPSIxMyIgbGVuZ3RoQWRqdXN0PSJzcGFjaW5nIiB0ZXh0TGVuZ3RoPSI0MSIgeD0iMjQ2IiB5PSIxNjIuMTAxNiI+Z2V0T25lPC90ZXh0Pjxwb2x5Z29uIGZpbGw9IiMxODE4MTgiIHBvaW50cz0iNDA0LjUsMTg5LjY0MDYsNDE0LjUsMTkzLjY0MDYsNDA0LjUsMTk3LjY0MDYsNDA4LjUsMTkzLjY0MDYiIHN0eWxlPSJzdHJva2U6IzE4MTgxODtzdHJva2Utd2lkdGg6MS4wOyIvPjxsaW5lIHN0eWxlPSJzdHJva2U6IzE4MTgxODtzdHJva2Utd2lkdGg6MS4wOyIgeDE9IjM0My41IiB4Mj0iNDEwLjUiIHkxPSIxOTMuNjQwNiIgeTI9IjE5My42NDA2Ii8+PHRleHQgZmlsbD0iIzAwMDAwMCIgZm9udC1mYW1pbHk9InNhbnMtc2VyaWYiIGZvbnQtc2l6ZT0iMTMiIGxlbmd0aEFkanVzdD0ic3BhY2luZyIgdGV4dExlbmd0aD0iNDAiIHg9IjM1MC41IiB5PSIxOTAuMDE1NiI+ZGVsZXRlPC90ZXh0Pjxwb2x5Z29uIGZpbGw9IiMxODE4MTgiIHBvaW50cz0iMzU0LjUsMjE3LjU1NDcsMzQ0LjUsMjIxLjU1NDcsMzU0LjUsMjI1LjU1NDcsMzUwLjUsMjIxLjU1NDciIHN0eWxlPSJzdHJva2U6IzE4MTgxODtzdHJva2Utd2lkdGg6MS4wOyIvPjxsaW5lIHN0eWxlPSJzdHJva2U6IzE4MTgxODtzdHJva2Utd2lkdGg6MS4wO3N0cm9rZS1kYXNoYXJyYXk6Mi4wLDIuMDsiIHgxPSIzNDguNSIgeDI9IjQyMC41IiB5MT0iMjIxLjU1NDciIHkyPSIyMjEuNTU0NyIvPjx0ZXh0IGZpbGw9IiMwMDAwMDAiIGZvbnQtZmFtaWx5PSJzYW5zLXNlcmlmIiBmb250LXNpemU9IjEzIiBsZW5ndGhBZGp1c3Q9InNwYWNpbmciIHRleHRMZW5ndGg9IjQ5IiB4PSIzNjAuNSIgeT0iMjE3LjkyOTciPnN1Y2Nlc3M8L3RleHQ+PHBvbHlnb24gZmlsbD0iIzE4MTgxOCIgcG9pbnRzPSIyNTAsMjQ1LjQ2ODgsMjQwLDI0OS40Njg4LDI1MCwyNTMuNDY4OCwyNDYsMjQ5LjQ2ODgiIHN0eWxlPSJzdHJva2U6IzE4MTgxODtzdHJva2Utd2lkdGg6MS4wOyIvPjxsaW5lIHN0eWxlPSJzdHJva2U6IzE4MTgxODtzdHJva2Utd2lkdGg6MS4wO3N0cm9rZS1kYXNoYXJyYXk6Mi4wLDIuMDsiIHgxPSIyNDQiIHgyPSIzMzcuNSIgeTE9IjI0OS40Njg4IiB5Mj0iMjQ5LjQ2ODgiLz48dGV4dCBmaWxsPSIjMDAwMDAwIiBmb250LWZhbWlseT0ic2Fucy1zZXJpZiIgZm9udC1zaXplPSIxMyIgbGVuZ3RoQWRqdXN0PSJzcGFjaW5nIiB0ZXh0TGVuZ3RoPSI0OSIgeD0iMjU2IiB5PSIyNDUuODQzOCI+c3VjY2VzczwvdGV4dD48cGF0aCBkPSJNNDYsMjY0LjQ2ODggTDExMCwyNjQuNDY4OCBMMTEwLDI3MC4zODI4IEwxMDAsMjgwLjM4MjggTDQ2LDI4MC4zODI4IEw0NiwyNjQuNDY4OCAiIGZpbGw9IiNFRUVFRUUiIHN0eWxlPSJzdHJva2U6IzAwMDAwMDtzdHJva2Utd2lkdGg6MS41OyIvPjxyZWN0IGZpbGw9Im5vbmUiIGhlaWdodD0iODUuNTE1NiIgc3R5bGU9InN0cm9rZTojMDAwMDAwO3N0cm9rZS13aWR0aDoxLjU7IiB3aWR0aD0iMjQ3IiB4PSI0NiIgeT0iMjY0LjQ2ODgiLz48dGV4dCBmaWxsPSIjMDAwMDAwIiBmb250LWZhbWlseT0ic2Fucy1zZXJpZiIgZm9udC1zaXplPSIxMyIgZm9udC13ZWlnaHQ9ImJvbGQiIGxlbmd0aEFkanVzdD0ic3BhY2luZyIgdGV4dExlbmd0aD0iMTkiIHg9IjYxIiB5PSIyNzcuNzU3OCI+YWx0PC90ZXh0Pjx0ZXh0IGZpbGw9IiMwMDAwMDAiIGZvbnQtZmFtaWx5PSJzYW5zLXNlcmlmIiBmb250LXNpemU9IjExIiBmb250LXdlaWdodD0iYm9sZCIgbGVuZ3RoQWRqdXN0PSJzcGFjaW5nIiB0ZXh0TGVuZ3RoPSI5NiIgeD0iMTI1IiB5PSIyNzYuODY3MiI+W3NvbWUgY29uZGl0aW9uXTwvdGV4dD48cG9seWdvbiBmaWxsPSIjMTgxODE4IiBwb2ludHM9IjEzMS41LDI5Ni4yOTY5LDEyMS41LDMwMC4yOTY5LDEzMS41LDMwNC4yOTY5LDEyNy41LDMwMC4yOTY5IiBzdHlsZT0ic3Ryb2tlOiMxODE4MTg7c3Ryb2tlLXdpZHRoOjEuMDsiLz48bGluZSBzdHlsZT0ic3Ryb2tlOiMxODE4MTg7c3Ryb2tlLXdpZHRoOjEuMDtzdHJva2UtZGFzaGFycmF5OjIuMCwyLjA7IiB4MT0iMTI1LjUiIHgyPSIyMjgiIHkxPSIzMDAuMjk2OSIgeTI9IjMwMC4yOTY5Ii8+PHRleHQgZmlsbD0iIzAwMDAwMCIgZm9udC1mYW1pbHk9InNhbnMtc2VyaWYiIGZvbnQtc2l6ZT0iMTMiIGxlbmd0aEFkanVzdD0ic3BhY2luZyIgdGV4dExlbmd0aD0iNDkiIHg9IjEzNy41IiB5PSIyOTYuNjcxOSI+c3VjY2VzczwvdGV4dD48bGluZSBzdHlsZT0ic3Ryb2tlOiMwMDAwMDA7c3Ryb2tlLXdpZHRoOjEuMDtzdHJva2UtZGFzaGFycmF5OjIuMCwyLjA7IiB4MT0iNDYiIHgyPSIyOTMiIHkxPSIzMDkuMjk2OSIgeTI9IjMwOS4yOTY5Ii8+PHRleHQgZmlsbD0iIzAwMDAwMCIgZm9udC1mYW1pbHk9InNhbnMtc2VyaWYiIGZvbnQtc2l6ZT0iMTEiIGZvbnQtd2VpZ2h0PSJib2xkIiBsZW5ndGhBZGp1c3Q9InNwYWNpbmciIHRleHRMZW5ndGg9IjEzMiIgeD0iNTEiIHk9IjMxOS42OTUzIj5bc29tZSBvdGhlciBjb25kaXRpb25dPC90ZXh0Pjxwb2x5Z29uIGZpbGw9IiMxODE4MTgiIHBvaW50cz0iMTMxLjUsMzM3Ljk4NDQsMTIxLjUsMzQxLjk4NDQsMTMxLjUsMzQ1Ljk4NDQsMTI3LjUsMzQxLjk4NDQiIHN0eWxlPSJzdHJva2U6IzE4MTgxODtzdHJva2Utd2lkdGg6MS4wOyIvPjxsaW5lIHN0eWxlPSJzdHJva2U6IzE4MTgxODtzdHJva2Utd2lkdGg6MS4wO3N0cm9rZS1kYXNoYXJyYXk6Mi4wLDIuMDsiIHgxPSIxMjUuNSIgeDI9IjIyOCIgeTE9IjM0MS45ODQ0IiB5Mj0iMzQxLjk4NDQiLz48dGV4dCBmaWxsPSIjMDAwMDAwIiBmb250LWZhbWlseT0ic2Fucy1zZXJpZiIgZm9udC1zaXplPSIxMyIgbGVuZ3RoQWRqdXN0PSJzcGFjaW5nIiB0ZXh0TGVuZ3RoPSIyNyIgeD0iMTM3LjUiIHk9IjMzOC4zNTk0Ij53YXJuPC90ZXh0Pjxwb2x5Z29uIGZpbGw9IiMxODE4MTgiIHBvaW50cz0iMzYuNSwzNzIuODk4NCwyNi41LDM3Ni44OTg0LDM2LjUsMzgwLjg5ODQsMzIuNSwzNzYuODk4NCIgc3R5bGU9InN0cm9rZTojMTgxODE4O3N0cm9rZS13aWR0aDoxLjA7Ii8+PGxpbmUgc3R5bGU9InN0cm9rZTojMTgxODE4O3N0cm9rZS13aWR0aDoxLjA7c3Ryb2tlLWRhc2hhcnJheToyLjAsMi4wOyIgeDE9IjMwLjUiIHgyPSIxMTQuNSIgeTE9IjM3Ni44OTg0IiB5Mj0iMzc2Ljg5ODQiLz48dGV4dCBmaWxsPSIjMDAwMDAwIiBmb250LWZhbWlseT0ic2Fucy1zZXJpZiIgZm9udC1zaXplPSIxMyIgbGVuZ3RoQWRqdXN0PSJzcGFjaW5nIiB0ZXh0TGVuZ3RoPSI1NiIgeD0iNDIuNSIgeT0iMzczLjI3MzQiPnJlc3BvbnNlPC90ZXh0PjwhLS1TUkM9W2JQQW5KaUdtMzhSdEY4S3RmWEZ4M0tXNzRuREk0MHlHS2FDWnZVbWdEa3RodXJFOUlEQ0FZR21QeWxsX1ZaajlZQ2U1QmhWVEpRNWVZY2FBZkYwY01FSTlJR2xkWjBWUUF2T3ZIVG04WnE3bXdEbXhUeFRjV0Y4RWxHZ2RYcncwQ21vT2QtYzNOT1lRdmcydXluZ3RUek00c2FZbHJ3MFZ0TEFJVUJwb1o1ckMxVElDUWgyMFRqMkRQbDE2Q19PZHdXaXJ2RFBmdUJST2tEd3IxbVJwd29NV0RXWmxGOW5zR1Y4TDh1Z3UwUGwyQk11Xy1PNmZRXzJJNUdpNTRuNmNlQUQwMzBKbDIzQm9HaDBhN0k1YWxTU2lyYzlNNEJ1WUhBT1hRTTlvTzZqeEd1U0ZOSGt2T0xPNHdzWkFscTVCQUVJRzFqVkV6RlRfQ0N4dzFTekdLMk9jY3dHdF96UF8wbTAwXS0tPjwvZz48L3N2Zz4=;" vertex="1" parent="1">
            <mxGeometry x="200" y="2338" width="438" height="474" as="geometry" />
          </mxCell>
        </UserObject>
      </root>
    </mxGraphModel>
  </diagram>
</mxfile>
